<svg viewBox="0 0 70 80" xmlns="http://www.w3.org/2000/svg" xmlns:xlink="http://www.w3.org/1999/xlink">
    <g>
        <title>بایا</title>
        <clipPath id="a">
            <path d="m0 0h70v80h-70z" />
        </clipPath>
        <g clip-path="url(#a)">
            <path clip-rule="evenodd"
                d="m46.4757 75.8231c-.2272-.3365-.5293-.6159-.8824-.8163.2611-.1948.4748-.4462.625-.7353.2022-.3536.3063-.7547.3015-1.1619.0143-.6307-.2118-1.2432-.6324-1.7134-.2305-.2568-.5147-.4597-.8324-.5944s-.6612-.1979-1.006-.1851h-2.7282c-.188-.0082-.3755.0258-.5486.0996s-.3274.1856-.4515.3269c-.2132.2581-.3256.5847-.3163.9192v6.7213c-.0089.3322.1036.6564.3163.9118.1245.1405.2791.2511.4522.3237.1731.0725.3604.1052.5479.0955h2.9414c.3797.0166.7583-.0505 1.1091-.1967.3508-.1461.6651-.3677.9206-.649.4534-.506.6955-1.1666.6765-1.8458.0032-.5403-.1698-1.0669-.4927-1.5001zm-5.405-3.7577c-.0012-.1084.0381-.2133.1103-.2941.0373-.0423.0841-.075.1365-.0955.0525-.0204.109-.0281.165-.0222h2.5077c.2055-.0106.4108.0241.6014.1016s.3618.196.5016.347c.253.282.3873.6508.3751 1.0295.0103.3761-.1239.7419-.3751 1.0221-.1381.1541-.3087.2756-.4994.3557-.1908.0801-.3969.1169-.6036.1076h-2.9195zm4.3755 6.4344c-.1541.1735-.345.3104-.5587.4007s-.4449.1318-.6767.1214h-2.7503c-.0559.0042-.1119-.0042-.1641-.0246s-.0991-.0522-.1374-.093c-.0629-.0763-.0944-.1735-.0883-.2721v-3.015h3.0518c.2372-.0098.4736.0318.6932.1219.2196.0902.4171.2267.579.4002.2785.3303.4312.7483.4312 1.1803 0 .4319-.1527.85-.4312 1.1802z"
                fill="#7e499d" fill-rule="evenodd" />
            <path clip-rule="evenodd"
                d="m55.8072 79.2206-2.9709-7.8905c-.0606-.1985-.1813-.3732-.3456-.5-.1343-.1113-.3037-.1712-.478-.1692-.1833-.0016-.3618.0579-.5074.1692-.1643.1268-.2851.3015-.3457.5l-2.9414 7.9199c-.0363.0718-.0551.1511-.0551.2316s.0188.1598.0551.2316c.0639.1245.1711.2212.3015.2721.0663.0216.1364.0295.206.0232.0695-.0063.137-.0267.1984-.0599.1402-.0735.2478-.1968.3015-.3457l.9266-2.5737h3.6768l.934 2.5443c.0506.1461.1525.2689.2868.3456.1273.0516.2697.0516.3971 0 .0654-.0217.1258-.0563.1776-.1017.0517-.0455.0939-.1009.1239-.163.0725-.1324.0935-.2869.0588-.4338zm-5.302-3.1768 1.4707-3.9195 1.4707 3.9195z"
                fill="#7e499d" fill-rule="evenodd" />
            <path clip-rule="evenodd"
                d="m69.9708 79.2206-2.9709-7.8905c-.063-.1992-.1863-.374-.353-.5-.1342-.1113-.3036-.1712-.478-.1692-.1828.0011-.3605.0603-.5074.1692-.1622.1287-.2825.3028-.3456.5l-2.9415 7.9199c-.0362.0718-.0551.1511-.0551.2316s.0189.1598.0551.2316c.0295.0632.0714.1199.1232.1666s.1124.0826.1783.1055c.0664.0216.1365.0295.206.0232s.1371-.0267.1985-.0599c.1383-.0738.2435-.1973.2941-.3457l.9339-2.5737h3.6769l.9266 2.5443c.0529.1448.1542.2669.2867.3456.1274.0516.2698.0516.3971 0 .129-.0462.2347-.1413.2942-.2647.077-.1307.1056-.2842.0809-.4338zm-5.3094-3.1768 1.4708-3.9195 1.4707 3.9195z"
                fill="#7e499d" fill-rule="evenodd" />
            <path
                d="m59.5652 75.9555v3.4636c.0053.0732-.005.1466-.0303.2155-.0254.0688-.0652.1315-.1167.1837s-.1136.0928-.1821.1191-.1419.0376-.2151.0332c-.1367.0014-.2695-.0455-.3751-.1324-.1016-.1098-.1569-.2547-.1544-.4044v-3.493l-2.7723-4.4121c-.0462-.0597-.0776-.1295-.0917-.2036-.014-.0741-.0104-.1505.0108-.223.019-.0627.0511-.1208.0942-.1702s.0962-.0892.1558-.1165c.1051-.0727.2343-.1017.3603-.0809.0779.0055.1532.0307.2187.0731.0656.0424.1194.1008.1564.1695l2.4046 3.8092 2.4341-3.8312c.0371-.0707.0892-.1324.1527-.1807.0636-.0483.137-.082.215-.0988.1307-.0471.2738-.0471.4045 0 .1163.0631.2072.1644.2573.2868.0324.152.0033.3106-.0808.4412z"
                fill="#7e499d" />
            <g clip-rule="evenodd" fill-rule="evenodd">
                <path
                    d="m13.435 80c-1.2991 0-2.569-.3853-3.64909-1.1072-1.08007-.7219-1.92176-1.7479-2.41857-2.9483-.49682-1.2003-.62643-2.5211-.37245-3.7951s.88014-2.4441 1.79927-3.3622 2.08994-1.5429 3.36424-1.7955c1.2743-.2525 2.595-.1214 3.7948.3767 1.1998.4982 2.2249 1.341 2.9456 2.4219.7206 1.0808 1.1046 2.3512 1.1031 3.6503 0 .862-.1699 1.7156-.5 2.5119s-.814 1.5197-1.4238 2.1289c-.6099.6092-1.3339 1.0922-2.1306 1.4214s-1.6504.4982-2.5125.4972z"
                    fill="#9aca3c" />
                <path
                    d="m57.2337 62.5058c-1.2966-.0001-2.5642-.384-3.643-1.1033s-1.9204-1.7419-2.419-2.9388c-.4985-1.1969-.6315-2.5146-.3822-3.787.2492-1.2724.8695-2.4426 1.7828-3.363.9132-.9204 2.0785-1.5498 3.349-1.809 1.2704-.2592 2.5891-.1364 3.7899.3527 1.2008.4892 2.2299 1.3228 2.9577 2.3959.7277 1.0731 1.1215 2.3377 1.1316 3.6342.0078.867-.1564 1.7268-.483 2.53-.3266.8031-.8092 1.5335-1.4199 2.1489-.6106.6154-1.3373 1.1037-2.1378 1.4366s-1.6591.5038-2.5261.5028"
                    fill="#7e499d" />
                <path
                    d="m44.4678 46.7102c6.8242-2.1914 10.6849-7.486 10.6849-15.5603v-1.934h14.8251c0 6.2212-1.7796 10.6628-5.883 13.7954-5.0887 3.8827-14.1412 4.0886-19.627 3.6989z"
                    fill="#7e499d" />
                <path
                    d="m29.6504 79.9706c-1.2994.0014-2.5701-.3826-3.6511-1.1036-1.0811-.7211-1.9239-1.7466-2.4218-2.9468-.498-1.2002-.6287-2.5212-.3755-3.7957.2531-1.2745.8787-2.4453 1.7976-3.3641.9188-.9188 2.0896-1.5444 3.3641-1.7975 1.2745-.2532 2.5955-.1225 3.7958.3754 1.2002.498 2.2257 1.3408 2.9468 2.4218.721 1.081 1.1051 2.3517 1.1036 3.6511 0 1.7396-.6911 3.408-1.9212 4.6382-1.2302 1.2301-2.8986 1.9212-4.6383 1.9212"
                    fill="#9aca3c" />
                <path
                    d="m16.9131 64.2045c6.8242-2.2061 10.7143-7.486 10.7143-15.5603v-1.934h14.8251c0 6.2212-1.7869 10.6701-5.8829 13.7954-5.1476 3.8827-14.2074 4.0886-19.6565 3.6989z"
                    fill="#9aca3c" />
                <path
                    d="m42.4164 15.244v15.4426c0 3.471.8898 7.7581 3.6769 10.1554-2.1616 1.5272-4.808 2.2089-7.4384 1.9162s-5.0622-1.5396-6.8352-3.5046c-3.7724-4.0077-4.2357-9.6038-4.2357-14.8249v-24.4287c8.192 0 14.8324 6.82416 14.8324 15.244z"
                    fill="#7e499d" />
                <path
                    d="m14.8251 32.7383v15.4426c0 3.4709.8898 7.7581 3.6768 10.1627-2.1654 1.5185-4.8116 2.1922-7.4396 1.8942-2.62798-.298-5.05611-1.5472-6.82656-3.512-3.772456-4.0077-4.23574-9.6038-4.23574-14.8102v-24.4213c8.18468 0 14.8251 6.8315 14.8251 15.244"
                    fill="#7e499d" />
            </g>
        </g>
    </g>
</svg>