<svg width="148" height="132" viewBox="0 0 148 132" fill="none" xmlns="http://www.w3.org/2000/svg">
<path d="M22.3 115.9L22.2 127.8C31 127.3 51.6 127.3 61.3 127.8L61.4 115.9C51.2 116.5 32.5 116.6 22.3 115.9Z" fill="white"/>
<path d="M117.2 111.9C111.7 111.9 107.2 116.4 107.2 121.9C107.2 127.4 111.7 131.9 117.2 131.9C122.7 131.9 127.2 127.4 127.2 121.9C127.2 116.4 122.7 111.9 117.2 111.9Z" fill="white"/>
<path d="M147.7 81.2C140.4 53.3 138.5 39.6 138.7 28.8C123.8 30.2 119 32.5 119 39.7C119 40.1 119 40.5 119 40.9C119.8 52.9 124.4 72.2 130.1 91.4C127.2 93 122.4 94.5 119 94.5C110.7 94.5 107.3 87.8 107.3 76V11.7V0C99 1.5 90.4 2 78.9 1.5V4C84.4 4 86.6 7.3 86.6 15.2V74.7C86.6 78.8 87 82.4 87.9 85.6C88.9 89.2 90.4 92.2 92.5 94.6C93.6 95.8 94.7 96.9 96.1 97.8C99.5 100 103.8 101.2 109.1 101.2C119.5 101.2 132.5 95.2 147.7 81.2Z" fill="white"/>
<path d="M59.8 28.8C44.9 30.2 40.1 32.5 40.1 39.7C40.1 40.1 40.1 40.5 40.1 40.9C40.9 52.9 45.5 72.2 51.2 91.4C48.3 93 43.5 94.5 40.1 94.5C31.8 94.5 28.4 87.8 28.4 76V11.7V0C20.2 1.5 11.6 2 0 1.5V4C5.5 4 7.7 7.3 7.7 15.2V74.7C7.7 76.4 7.8 78.1 8 79.6C8.7 86.8 11 92.4 14.9 96C15.6 96.6 16.3 97.2 17.1 97.7C20.5 99.9 24.8 101.1 30.1 101.1C40.6 101.1 53.5 95.1 68.8 81.1C61.5 53.2 59.6 39.6 59.8 28.8Z" fill="white"/>
</svg>