<svg version="1.2" xmlns="http://www.w3.org/2000/svg" viewBox="0 0 260 279" width="260" height="279">
	<title>2101</title>
	<defs>
		<clipPath clipPathUnits="userSpaceOnUse" id="cp1">
			<path d="m288.98 143.88c0 88.36-71.62 159.98-159.98 159.98c-88.36 0-159.98-71.62-159.98-159.98c0-88.36 71.62-159.98 159.98-159.98c88.36 0 159.98 71.62 159.98 159.98z" />
		</clipPath>
		<linearGradient id="g1" x1="27.5" y1="120" x2="223.8" y2="120" gradientUnits="userSpaceOnUse">
			<stop offset="0" stop-color="#7b7be6"/>
			<stop offset="1" stop-color="#9481ff"/>
		</linearGradient>
		<linearGradient id="g2" x1="29.2" y1="98.4" x2="223.7" y2="98.4" gradientUnits="userSpaceOnUse">
			<stop offset="0" stop-color="#7b7be6"/>
			<stop offset="1" stop-color="#9481ff"/>
		</linearGradient>
		<linearGradient id="g3" x1="77.1" y1="52.2" x2="187.1" y2="52.2" gradientUnits="userSpaceOnUse">
			<stop offset="0" stop-color="#3d3d89"/>
			<stop offset="1" stop-color="#4a4a9b"/>
		</linearGradient>
		<linearGradient id="g4" x1="45.8" y1="9.8" x2="219.1" y2="9.8" gradientUnits="userSpaceOnUse">
			<stop offset="0" stop-color="#7b7be6"/>
			<stop offset="1" stop-color="#9481ff"/>
		</linearGradient>
	</defs>
	<style>
		.s0 { fill: #fff8ef } 
		.s1 { fill: #eee8de } 
		.s2 { fill: #c5bbac } 
		.s3 { fill: #d5cbbd } 
		.s4 { fill: url(#g1) } 
		.s5 { fill: #3d3d89 } 
		.s6 { fill: #6666c4 } 
		.s7 { fill: url(#g2) } 
		.s8 { fill: #5454ac } 
		.s9 { fill: #4a4a9b } 
		.s10 { fill: #d87b5c } 
		.s11 { fill: #ff9e7c } 
		.s12 { fill: #f38f6e } 
		.s13 { opacity: .7;fill: #c5bbac } 
		.s14 { fill: url(#g3) } 
		.s15 { fill: url(#g4) } 
		.s16 { fill: #9a92ff } 
	</style>
	<g id="0">
		<g id="1">
			<g id="&lt;Clip Group&gt;" clip-path="url(#cp1)">
				<g id="&lt;Group&gt;">
					<g id="8 1 ">
						<g id="&lt;Group&gt;">
							<g id="&lt;Group&gt;">
								<g id="&lt;Group&gt;">
									<path id="&lt;Path&gt;" class="s0" d="m232.6 215.7l-87.9 50.8c-0.7 0.4-1.4 0.4-1.9 0.2l-121.4-70.4c0.5 0.3 1.2 0.3 1.9-0.2l87.9-50.7z" />
									<path id="Cube face - right 2 " class="s1" d="m227.2 215.5l-86 49.6v-15.1c0-4 2.1-7.7 5.6-9.7l80.4-46.4z" />
									<g id="&lt;Group&gt;">
										<path id="&lt;Path&gt;" class="s2" d="m20.2 198.4c-0.8-0.4-1.3-1.4-1.3-2.8l83.4 44.4l38.2 26.1c0 1.4 0.3 2.2 1.1 2.7z" />
										<path id="&lt;Path&gt;" class="s1" d="m140.5 251.1l-44-21.9l-77.7-48.6c0-2.8 2-6.2 4.5-7.7l87 37.3l34.7 33.2c-2.5 1.5-4.5 4.9-4.5 7.7z" />
									</g>
									<path id="&lt;Path&gt;" class="s0" d="m144.7 243.3l-121.4-70.4l87.9-50.7l121.4 70.3z" />
								</g>
								<path id="&lt;Path&gt;" class="s3" d="m141 231.8l-0.4 4.9h-7.3c-3.1 0.8-6.3 3.8-7.4 6.6q-90.5-50.4-107.1-62.7c0-4.2 3.3-7 4.5-7.7l87.9-50.7l16.7 101.4z" />
								<path id="&lt;Path&gt;" class="s3" d="m140.5 266.1l-121.6-70.5l-0.1-15l121.7 70.5z" />
								<path id="&lt;Path&gt;" class="s1" d="m232.6 192.5v2l-87.9 50.8c-1.5 0.8-2.7 2.9-2.7 4.7v14.9c0 1.7 1.2 2.4 2.7 1.6l87.9-50.8v2l-87.9 50.8c-2.4 1.4-4.4 0.2-4.4-2.6v-14.9c-0.1-2.8 1.9-6.3 4.4-7.7z" />
							</g>
							<g id="&lt;Group&gt;">
								<g id="&lt;Group&gt;">
									<path id="&lt;Path&gt;" class="s4" d="m223.8 187.3l-81.7 47.2c-0.7 0.4-1.3 0.4-1.8 0.2l-112.8-65.4c0.4 0.3 1.1 0.2 1.8-0.2l81.7-47.1z" />
									<path id="Cube face - right 105 " class="s1" d="m218.7 187.1l-79.9 46.2v-14.1c0-3.7 2-7.1 5.2-9l74.7-43.1z" />
									<g id="&lt;Group&gt;">
										<path id="&lt;Path&gt;" class="s5" d="m26.3 171.3c-0.7-0.5-1.2-1.4-1.2-2.7l77.5 41.3l35.6 24.2c0 1.3 0.3 2.1 1 2.6z" />
										<path id="&lt;Path&gt;" class="s6" d="m138.2 220.2l-40.9-20.3l-72.2-45.2c0-2.6 1.9-5.8 4.1-7.1l80.9 34.7l32.2 30.8c-2.3 1.3-4.1 4.5-4.1 7.1z" />
									</g>
									<path id="&lt;Path&gt;" class="s7" d="m142.1 213l-112.9-65.4l81.7-47.2l112.8 65.4z" />
								</g>
								<path id="&lt;Path&gt;" class="s8" d="m138.6 202.3l-0.4 4.6h-6.7c-2.9 0.7-5.9 3.5-6.9 6.1q-84.1-46.9-99.5-58.3c0-3.9 3-6.5 4.1-7.1l81.7-47.2l15.6 94.2z" />
								<path id="&lt;Path&gt;" class="s9" d="m138.2 234.1l-113.1-65.5v-13.9l113.1 65.5z" />
								<path id="&lt;Path&gt;" class="s6" d="m223.7 165.8v1.9l-81.6 47.1c-1.4 0.8-2.6 2.8-2.6 4.4l0.1 13.9c0 1.6 1.1 2.2 2.5 1.4l81.7-47.2v1.9l-81.7 47.2c-2.3 1.3-4.1 0.2-4.2-2.4v-13.9c0-2.6 1.9-5.8 4.2-7.1z" />
							</g>
							<g id="&lt;Group&gt;">
								<g id="&lt;Group&gt;">
									<g id="&lt;Group&gt;">
										<path id="&lt;Path&gt;" class="s10" d="m215.8 160.5l-107.2-62.1c1.2-0.7 2.1-2.3 2.1-3.6l107.2 62.1c0 1.3-0.9 2.9-2.1 3.6z" />
									</g>
									<path id="&lt;Path&gt;" class="s10" d="m218.2 143.5l-0.3 13.4l-107.2-62.1v-12.1c0-0.6-0.3-1.1-0.6-1.3z" />
									<path id="&lt;Path&gt;" class="s11" d="m138.2 205.3l-107.2-62.1l77.6-44.8l107.2 62.1z" />
									<path id="&lt;Path&gt;" class="s10" d="m138.1 202.8h-4.1l-103-59.6l77.6-44.8l62.7 53.5z" />
									<path id="Cube face - left 106 " class="s3" d="m34.8 125.6l103.4 59.7v17.5l-103.4-59.7z" />
									<path id="&lt;Path&gt;" class="s1" d="m215.4 155.9c0 1.2-0.9 2.8-2 3.5l-75.2 43.4v-17.5l76.6-42.9c0.3 0.2 0.6 0.7 0.6 1.3v12.2q0 0 0 0z" />
									<path id="&lt;Path&gt;" class="s10" d="m138.2 206.8l-107.2-62.1v-1.5l107.2 62.1z" />
									<path id="&lt;Path&gt;" class="s11" d="m218.2 141.9l-80 45l-107.2-62l77.6-44.9c0.9-0.5 1.8-0.6 2.4-0.2z" />
									<path id="&lt;Path&gt;" class="s12" d="m215.8 142.1c1.9-1.1 3.4-0.2 3.4 1.9v12.2c0 2.1-1.5 4.7-3.4 5.8l-77.6 44.8v-1.5l77.6-44.8c1.2-0.7 2.1-2.3 2.1-3.6v-12.1c0-1.3-1-1.8-2.1-1.2l-77.6 44.8v-1.5z" />
									<path id="&lt;Path&gt;" class="s10" d="m138.2 188.4l-107.2-62v-1.5l107.2 62z" />
								</g>
								<path id="&lt;Path&gt;" class="s10" d="m75.3 99.3l45.4 56.2l17.8 22.7h-9.5l-95.2-55z" />
							</g>
							<g id="&lt;Group&gt;">
								<path id="&lt;Path&gt;" class="s0" d="m210.3 135.3l-70.5 40.7c-0.6 0.4-1.2 0.4-1.6 0.2l-93-53.9c0.4 0.3 1 0.2 1.7-0.2l70.5-40.7z" />
								<path id="Cube face - right 181 " class="s1" d="m205.6 135.1l-68.8 39.8v-3.9c0-3.5 1.8-6.6 4.8-8.3l64-37z" />
								<g id="&lt;Group&gt;">
									<path id="&lt;Path&gt;" class="s2" d="m44.1 124.1c-0.6-0.4-1.1-1.2-1.1-2.4l60.2 31.6l33 22.4c0 1.2 0.3 1.9 0.9 2.3z" />
									<path id="&lt;Path&gt;" class="s1" d="m136.2 172l-38-18.9l-55.2-35.1c0-2.5 1.7-5.4 3.8-6.7l63.4 25.4l29.8 28.6c-2.1 1.3-3.8 4.2-3.8 6.7z" />
									<path id="&lt;Path&gt;" class="s3" d="m136.2 175.7l-93.2-54v-3.7l93.2 54z" />
								</g>
								<path id="&lt;Path&gt;" class="s0" d="m139.8 165.2l-93-53.9l70.5-40.7l93 53.9z" />
								<path id="&lt;Path&gt;" class="s1" d="m210.3 124.5v1.7l-70.5 40.7c-1.3 0.8-2.3 2.6-2.3 4.1v3.7c0 1.5 1 2.1 2.3 1.3l70.5-40.7l0.1 1.7l-70.6 40.7c-2.1 1.3-3.8 0.3-3.8-2.2v-3.7c0-2.4 1.7-5.4 3.8-6.6z" />
							</g>
						</g>
						<g id="&lt;Group&gt;">
							<path id="&lt;Path&gt;" class="s3" d="m142.3 220.4c4.6-2.4 15.2-8.5 21.1-12.2c-5.8 3-16.5 9.3-21.1 12.2z" />
							<path id="&lt;Path&gt;" class="s6" d="m178.2 230.1l-5 2.7c-1.9-5.3-7.4-16.4-24.1-16.4l4.8-2.8q16-0.6 24.3 16.5z" />
						</g>
						<g id="&lt;Group&gt;">
							<path id="&lt;Path&gt;" class="s3" d="m190.1 165.5c5.8-3 16.4-9.2 20.3-11.7c-4 2.1-14.7 8.2-20.3 11.7z" />
							<path id="&lt;Path&gt;" class="s11" d="m215.8 177.7l-3.6 2c-1.7-4.5-3.7-17.6-15.8-17.7l3.4-2q12.6 0.8 16 17.7z" />
						</g>
					</g>
					<path id="&lt;Path&gt;" class="s13" d="m149 105.9l-16.9 9.8l-0.3 24.9h-42.5c-4.1-0.1-7 1.4-8.4 4.8l-36.8-21.3c-0.6-0.4-1.1-1.2-1.1-2.4q0-3.7 0-3.7c0-2.5 1.7-5.4 3.8-6.7l55.9-32.2z" />
					<g id="9">
						<path id="&lt;Path&gt;" class="s14" d="m186.3 54.1v54.3c0.2 8.3-5.3 16.7-16.3 23c-21.8 12.6-57.1 12.6-78.9 0c-10.7-6.2-16.2-14.3-16.3-22.4v-54.3c0.1 8.1 5.6 16.3 16.3 22.5c21.8 12.5 57.1 12.5 78.9 0c11-6.4 16.5-14.7 16.3-23.1z" />
						<g id="&lt;Group&gt;">
							<g id="&lt;Group&gt;">
								<path id="&lt;Path&gt;" class="s6" d="m219.1 62v4.2l-86.3 50.2v-4.2z" />
							</g>
							<g id="&lt;Group&gt;">
								<path id="&lt;Path&gt;" class="s9" d="m132.8 112.2l-0.1 4.2l-86.9-50.2v-4.2z" />
							</g>
							<g id="&lt;Group&gt;">
								<path id="&lt;Path&gt;" class="s15" d="m219.1 62l-86.3 50.2l-87-50.2l86.4-50.2z" />
							</g>
						</g>
						<g id="&lt;Group&gt;">
							<g id="&lt;Group&gt;">
								<path id="&lt;Path&gt;" class="s16" d="m132.5 62.6l-42.2 24.4c-0.5 0.2-0.7 0.7-0.7 1.2v1.3q-1-0.3-2-0.5v-0.8c0-1.2 0.6-2.3 1.7-3l42.2-24.4c0.5-0.2 1.1-0.1 1.4 0.4c0.3 0.5 0.1 1.1-0.4 1.4z" />
								<path id="&lt;Path&gt;" class="s6" d="m91.9 150.2q0 0.4-0.1 0.7c0 0.6-0.7 0.9-1.2 0.5c-0.2 0.2-0.4 0.2-0.6 0.2c0 0.8-1.3 1-1.4 0.1c-0.2 0.8-1.4 0.8-1.4-0.2c-0.4 0.5-1.3 0.4-1.3-0.5c-0.1 0.1-0.2 0.1-0.2 0.1c-0.7 0-0.7-0.5-0.8-1.1c-0.5 0.2-0.9-0.2-0.9-0.7c0-6 3.2-12.3 4.6-11.9c2.2-0.6 6 13.8 3.3 12.8z" />
								<path id="&lt;Path&gt;" class="s6" d="m89.6 87.9q0 0.2 0 0.3v50c0 0.8-2 0.8-2 0v-50c0-0.4 0.1-0.9 0.2-1.3c0.5 0.5 1.1 0.8 1.8 1z" />
							</g>
							<path id="&lt;Path&gt;" class="s16" d="m128.6 60.4c0.6-1.4 3.1-2.2 5.6-1.8c2.4 0.3 3.9 1.8 3.2 3.2c-0.6 1.4-3.1 2.3-5.6 1.9c-2.4-0.4-3.9-1.9-3.2-3.3z" />
						</g>
					</g>
					<g id="&lt;Group&gt;">
						<g id="&lt;Group&gt;">
							<path id="&lt;Path&gt;" class="s1" d="m67.2 244.4l2.9-0.4l-5 18.7l-2.9 0.4z" />
						</g>
						<g id="&lt;Group&gt;">
							<path id="&lt;Path&gt;" class="s1" d="m72.5 224.9l2.9-0.5l-4.8 17.7l-2.9 0.5z" />
						</g>
						<g id="&lt;Group&gt;">
							<path id="&lt;Path&gt;" class="s1" d="m77.8 205.4l2.9-0.5l-4.8 17.7l-2.9 0.4z" />
						</g>
						<g id="&lt;Group&gt;">
							<path id="&lt;Path&gt;" class="s0" d="m67.7 242.6l2.9-0.5l18.1 10.5l-2.8 0.4z" />
						</g>
						<g id="&lt;Group&gt;">
							<path id="&lt;Path&gt;" class="s1" d="m83.1 185.8l2.9-0.4l-4.8 17.6l-2.9 0.5z" />
						</g>
						<g id="&lt;Group&gt;">
							<path id="&lt;Path&gt;" class="s0" d="m73 223l2.9-0.4l18.1 10.5l-2.8 0.4z" />
						</g>
						<g id="&lt;Group&gt;">
							<path id="&lt;Path&gt;" class="s1" d="m88.4 166.3l2.8-0.5l-4.7 17.7l-2.9 0.5z" />
						</g>
						<g id="&lt;Group&gt;">
							<path id="&lt;Path&gt;" class="s0" d="m78.3 203.5l2.9-0.5l18.1 10.5l-2.9 0.5z" />
						</g>
						<g id="&lt;Group&gt;">
							<path id="&lt;Path&gt;" class="s1" d="m93.6 146.8l2.9-0.5l-4.8 17.7l-2.8 0.4z" />
						</g>
						<g id="&lt;Group&gt;">
							<path id="&lt;Path&gt;" class="s0" d="m83.6 184l2.9-0.5l18.1 10.5l-2.9 0.4z" />
						</g>
						<g id="&lt;Group&gt;">
							<path id="&lt;Path&gt;" class="s1" d="m98.9 127.2l2.9-0.4l-4.8 17.6l-2.9 0.5z" />
						</g>
						<g id="&lt;Group&gt;">
							<path id="&lt;Path&gt;" class="s0" d="m88.9 164.4l2.8-0.4l18.2 10.4l-2.9 0.5z" />
						</g>
						<g id="&lt;Group&gt;">
							<path id="&lt;Path&gt;" class="s1" d="m104.2 107.7l2.9-0.5l-4.8 17.7l-2.9 0.5z" />
						</g>
						<g id="&lt;Group&gt;">
							<path id="&lt;Path&gt;" class="s0" d="m94.1 144.9l2.9-0.5l18.1 10.5l-2.8 0.5z" />
						</g>
						<g id="&lt;Group&gt;">
							<path id="&lt;Path&gt;" class="s1" d="m109.5 88.1l2.9-0.4l-4.8 17.7l-2.9 0.4z" />
						</g>
						<g id="&lt;Group&gt;">
							<path id="&lt;Path&gt;" class="s0" d="m99.4 125.4l2.9-0.5l18.1 10.5l-2.8 0.4z" />
						</g>
						<g id="&lt;Group&gt;">
							<path id="&lt;Path&gt;" class="s0" d="m104.7 105.8l2.9-0.4l18.1 10.4l-2.9 0.5z" />
						</g>
						<g id="&lt;Group&gt;">
							<path id="&lt;Path&gt;" class="s0" d="m107.9 87.2l2.8-0.4l1.7 0.9l-2.9 0.4z" />
						</g>
						<g id="&lt;Group&gt;">
							<path id="&lt;Path&gt;" class="s0" d="m127.6 98.6l2.9-0.4l1.6 0.9l-2.9 0.5z" />
						</g>
						<g id="&lt;Group&gt;">
							<path id="&lt;Compound Path&gt;" fill-rule="evenodd" class="s3" d="m129.2 99.6l-47.2 174.9l-1.7-0.9l5.1-18.7l-18.2-10.5l-5 18.7l-1.6-0.9l47.3-175l1.6 0.9l-4.8 17.7l18.1 10.5l4.8-17.7zm-38.6 135.8l-18.1-10.4l-4.8 17.6l18.1 10.5zm5.3-19.5l-18.1-10.5l-4.8 17.7l18.1 10.4zm5.3-19.5l-18.1-10.5l-4.8 17.7l18.2 10.5zm5.2-19.6l-18.1-10.4l-4.8 17.6l18.2 10.5zm5.2-19.5l-18.1-10.5l-4.8 17.7l18.2 10.4zm5.2-19.5l-18.1-10.5l-4.8 17.7l18.2 10.5zm5.2-19.6l-18.1-10.4l-4.8 17.6l18.2 10.5z" />
						</g>
						<g id="&lt;Group&gt;">
							<path id="&lt;Path&gt;" class="s1" d="m129.2 99.6l2.9-0.5l-47.3 175l-2.8 0.4z" />
						</g>
					</g>
				</g>
			</g>
		</g>
	</g>
</svg>