<svg version="1.2" xmlns="http://www.w3.org/2000/svg" viewBox="0 0 2988 3024" width="2988" height="3024">
	<title>20943991-ai</title>
	<defs>
		<linearGradient id="g1" x1="1555.9" y1="2958.3" x2="43.6" y2="1288.4" gradientUnits="userSpaceOnUse">
			<stop offset="0" stop-color="#ff928e"/>
			<stop offset="1" stop-color="#fe7062"/>
		</linearGradient>
		<linearGradient id="g2" x1="1297" y1="889.4" x2="1119.6" y2="1050" gradientUnits="userSpaceOnUse">
			<stop offset="0" stop-color="#ff928e"/>
			<stop offset="1" stop-color="#fe7062"/>
		</linearGradient>
		<linearGradient id="g3" x1="440.7" y1="1216.1" x2="665.9" y2="674.4" gradientUnits="userSpaceOnUse">
			<stop offset="0" stop-color="#4f52ff"/>
			<stop offset="1" stop-color="#4042e2"/>
		</linearGradient>
		<linearGradient id="g4" x1="357.6" y1="1255.6" x2="748.4" y2="1255.6" gradientUnits="userSpaceOnUse">
			<stop offset="0" stop-color="#dae3fe"/>
			<stop offset="1" stop-color="#e9effd"/>
		</linearGradient>
		<linearGradient id="g5" x1="1283.1" y1="2271.3" x2="1720.8" y2="2271.3" gradientUnits="userSpaceOnUse">
			<stop offset="0" stop-color="#a22b25"/>
			<stop offset="1" stop-color="#c0423c"/>
		</linearGradient>
		<linearGradient id="g6" x1="2309" y1="3336.3" x2="1512.4" y2="2292.1" gradientUnits="userSpaceOnUse">
			<stop offset="0" stop-color="#ff928e"/>
			<stop offset="1" stop-color="#fe7062"/>
		</linearGradient>
		<linearGradient id="g7" x1="958.8" y1="2056.6" x2="729.5" y2="2290.5" gradientUnits="userSpaceOnUse">
			<stop offset="0" stop-color="#4f52ff"/>
			<stop offset="1" stop-color="#4042e2"/>
		</linearGradient>
		<linearGradient id="g8" x1="1557.8" y1="2102.1" x2="871.1" y2="2443.7" gradientUnits="userSpaceOnUse">
			<stop offset="0" stop-color="#febbba"/>
			<stop offset="1" stop-color="#ff928e"/>
		</linearGradient>
		<linearGradient id="g9" x1="1459.8" y1="1893.9" x2="1372.9" y2="1984.6" gradientUnits="userSpaceOnUse">
			<stop offset="0" stop-color="#febbba"/>
			<stop offset="1" stop-color="#ff928e"/>
		</linearGradient>
		<linearGradient id="g10" x1="1455.5" y1="1999.1" x2="808.6" y2="2320.9" gradientUnits="userSpaceOnUse">
			<stop offset="0" stop-color="#febbba"/>
			<stop offset="1" stop-color="#ff928e"/>
		</linearGradient>
		<linearGradient id="g11" x1="1068.6" y1="2095.8" x2="3.7" y2="3500.5" gradientUnits="userSpaceOnUse">
			<stop offset="0" stop-color="#4f52ff"/>
			<stop offset="1" stop-color="#4042e2"/>
		</linearGradient>
		<linearGradient id="g12" x1="461.2" y1="2000.6" x2="552.5" y2="1751.4" gradientUnits="userSpaceOnUse">
			<stop offset="0" stop-color="#febbba"/>
			<stop offset="1" stop-color="#ff928e"/>
		</linearGradient>
		<linearGradient id="g13" x1="1153.3" y1="2557.1" x2="868.5" y2="2766.5" gradientUnits="userSpaceOnUse">
			<stop offset="0" stop-color="#febbba"/>
			<stop offset="1" stop-color="#ff928e"/>
		</linearGradient>
		<linearGradient id="g14" x1="1136.3" y1="1363.9" x2="969.6" y2="1650.6" gradientUnits="userSpaceOnUse">
			<stop offset="0" stop-color="#4f52ff"/>
			<stop offset="1" stop-color="#4042e2"/>
		</linearGradient>
		<linearGradient id="g15" x1="1183.9" y1="1421.2" x2="1023.5" y2="1697" gradientUnits="userSpaceOnUse">
			<stop offset="0" stop-color="#4f52ff"/>
			<stop offset="1" stop-color="#4042e2"/>
		</linearGradient>
		<linearGradient id="g16" x1="834.3" y1="1806.3" x2="588.1" y2="1994.6" gradientUnits="userSpaceOnUse">
			<stop offset="0" stop-color="#febbba"/>
			<stop offset="1" stop-color="#ff928e"/>
		</linearGradient>
		<linearGradient id="g17" x1="709.2" y1="1390.8" x2="956.3" y2="1708.8" gradientUnits="userSpaceOnUse">
			<stop offset="0" stop-color="#09005d"/>
			<stop offset="1" stop-color="#1a0f91"/>
		</linearGradient>
		<linearGradient id="g18" x1="711.1" y1="1697.9" x2="513" y2="1849.4" gradientUnits="userSpaceOnUse">
			<stop offset="0" stop-color="#febbba"/>
			<stop offset="1" stop-color="#ff928e"/>
		</linearGradient>
		<linearGradient id="g19" x1="1154.6" y1="2401.8" x2="1260.5" y2="2401.8" gradientUnits="userSpaceOnUse">
			<stop offset="0" stop-color="#a22b25"/>
			<stop offset="1" stop-color="#c0423c"/>
		</linearGradient>
		<linearGradient id="g20" x1="2354.1" y1="3186.2" x2="1670.5" y2="2290" gradientUnits="userSpaceOnUse">
			<stop offset="0" stop-color="#ff928e"/>
			<stop offset="1" stop-color="#fe7062"/>
		</linearGradient>
		<linearGradient id="g21" x1="2043.6" y1="1930.5" x2="1976.6" y2="1729.3" gradientUnits="userSpaceOnUse">
			<stop offset="0" stop-color="#a22b25"/>
			<stop offset="1" stop-color="#c0423c"/>
		</linearGradient>
		<linearGradient id="g22" x1="2814.8" y1="2381" x2="2963.6" y2="3048.4" gradientUnits="userSpaceOnUse">
			<stop offset="0" stop-color="#4f52ff"/>
			<stop offset="1" stop-color="#4042e2"/>
		</linearGradient>
		<linearGradient id="g23" x1="2789.4" y1="2884.6" x2="2066.1" y2="1936.4" gradientUnits="userSpaceOnUse">
			<stop offset="0" stop-color="#ff928e"/>
			<stop offset="1" stop-color="#fe7062"/>
		</linearGradient>
		<linearGradient id="g24" x1="2903.2" y1="1845.4" x2="2478.4" y2="2510.2" gradientUnits="userSpaceOnUse">
			<stop offset="0" stop-color="#e1473d"/>
			<stop offset="1" stop-color="#e9605a"/>
		</linearGradient>
		<linearGradient id="g25" x1="2397.4" y1="2379.2" x2="2471.7" y2="1677.5" gradientUnits="userSpaceOnUse">
			<stop offset="0" stop-color="#a22b25"/>
			<stop offset="1" stop-color="#c0423c"/>
		</linearGradient>
		<linearGradient id="g26" x1="1976.6" y1="1609.7" x2="1913.4" y2="1981.1" gradientUnits="userSpaceOnUse">
			<stop offset="0" stop-color="#a22b25"/>
			<stop offset="1" stop-color="#c0423c"/>
		</linearGradient>
		<linearGradient id="g27" x1="2299" y1="1670.4" x2="2099" y2="1457.9" gradientUnits="userSpaceOnUse">
			<stop offset="0" stop-color="#09005d"/>
			<stop offset="1" stop-color="#1a0f91"/>
		</linearGradient>
		<linearGradient id="g28" x1="2191.9" y1="1990.2" x2="2201.8" y2="1761.8" gradientUnits="userSpaceOnUse">
			<stop offset="0" stop-color="#a22b25"/>
			<stop offset="1" stop-color="#c0423c"/>
		</linearGradient>
		<linearGradient id="g29" x1="990.8" y1="1971.5" x2="990.8" y2="1747.3" gradientUnits="userSpaceOnUse">
			<stop offset="0" stop-color="#4f52ff"/>
			<stop offset="1" stop-color="#4042e2"/>
		</linearGradient>
		<linearGradient id="g30" x1="1175" y1="1468.6" x2="1171" y2="1372" gradientUnits="userSpaceOnUse">
			<stop offset="0" stop-color="#4f52ff"/>
			<stop offset="1" stop-color="#4042e2"/>
		</linearGradient>
		<linearGradient id="g31" x1="1245.3" y1="1305.1" x2="1268" y2="1621.5" gradientUnits="userSpaceOnUse">
			<stop offset="0" stop-color="#4f52ff"/>
			<stop offset="1" stop-color="#4042e2"/>
		</linearGradient>
		<linearGradient id="g32" x1="1483.6" y1="1457.5" x2="1479.6" y2="1360.9" gradientUnits="userSpaceOnUse">
			<stop offset="0" stop-color="#4f52ff"/>
			<stop offset="1" stop-color="#4042e2"/>
		</linearGradient>
		<linearGradient id="g33" x1="1553.3" y1="1283" x2="1576.1" y2="1599.4" gradientUnits="userSpaceOnUse">
			<stop offset="0" stop-color="#4f52ff"/>
			<stop offset="1" stop-color="#4042e2"/>
		</linearGradient>
		<linearGradient id="g34" x1="1591.8" y1="1157.4" x2="1561.4" y2="1380.7" gradientUnits="userSpaceOnUse">
			<stop offset="0" stop-color="#4f52ff"/>
			<stop offset="1" stop-color="#4042e2"/>
		</linearGradient>
		<linearGradient id="g35" x1="1826.1" y1="1355.6" x2="1714.7" y2="2396" gradientUnits="userSpaceOnUse">
			<stop offset="0" stop-color="#4f52ff"/>
			<stop offset="1" stop-color="#4042e2"/>
		</linearGradient>
		<linearGradient id="g36" x1="1389.3" y1="1489.8" x2="2005.1" y2="375.3" gradientUnits="userSpaceOnUse">
			<stop offset="0" stop-color="#09005d"/>
			<stop offset="1" stop-color="#1a0f91"/>
		</linearGradient>
		<linearGradient id="g37" x1="1465.3" y1="1477.1" x2="1465.3" y2="1557.5" gradientUnits="userSpaceOnUse">
			<stop offset="0" stop-color="#4f52ff"/>
			<stop offset="1" stop-color="#4042e2"/>
		</linearGradient>
	</defs>
	<style>
		.s0 { fill: #91b3fa } 
		.s1 { mix-blend-mode: soft-light;fill: #ffffff } 
		.s2 { fill: #bdd0fb } 
		.s3 { fill: #7d97f4 } 
		.s4 { opacity: .2;fill: #ffffff } 
		.s5 { fill: #ffffff } 
		.s6 { fill: url(#g1) } 
		.s7 { opacity: .5;fill: #ffffff } 
		.s8 { fill: url(#g2) } 
		.s9 { fill: url(#g3) } 
		.s10 { fill: url(#g4) } 
		.s11 { fill: url(#g5) } 
		.s12 { fill: url(#g6) } 
		.s13 { fill: url(#g7) } 
		.s14 { fill: url(#g8) } 
		.s15 { fill: url(#g9) } 
		.s16 { fill: url(#g10) } 
		.s17 { fill: url(#g11) } 
		.s18 { fill: url(#g12) } 
		.s19 { fill: url(#g13) } 
		.s20 { fill: url(#g14) } 
		.s21 { fill: url(#g15) } 
		.s22 { fill: url(#g16) } 
		.s23 { fill: url(#g17) } 
		.s24 { fill: url(#g18) } 
		.s25 { fill: url(#g19) } 
		.s26 { fill: url(#g20) } 
		.s27 { fill: url(#g21) } 
		.s28 { fill: url(#g22) } 
		.s29 { fill: url(#g23) } 
		.s30 { fill: url(#g24) } 
		.s31 { fill: url(#g25) } 
		.s32 { fill: url(#g26) } 
		.s33 { fill: url(#g27) } 
		.s34 { fill: url(#g28) } 
		.s35 { fill: url(#g29) } 
		.s36 { fill: url(#g30) } 
		.s37 { fill: url(#g31) } 
		.s38 { fill: url(#g32) } 
		.s39 { fill: url(#g33) } 
		.s40 { fill: url(#g34) } 
		.s41 { opacity: .7;fill: #ffffff } 
		.s42 { fill: url(#g35) } 
		.s43 { fill: url(#g36) } 
		.s44 { fill: url(#g37) } 
	</style>
	<g id="Illustration">
		<g id="&lt;Group&gt;">
			<g id="&lt;Group&gt;">
				<path id="&lt;Path&gt;" class="s0" d="m492.8 143.2c-1.2-11.6 13.3-17.8 21-9.1c78.1 88.7 261.2 349.6 169.7 766.2c-114.9 522.7-23.1 726.1 102.8 856.9q-183-73.3-282.9-280.4c-245-508.5 11.2-1127.8-10.6-1333.6z" />
				<path id="&lt;Path&gt;" class="s1" d="m545.1 311.2c1.7-0.2 3.2 1 3.5 2.7c7.8 59.7 13.3 119.8 17.2 180c3.6 60.1 5.3 120.5 5.1 180.8q-0.1 22.7-0.5 45.3c-0.4 15.1-0.8 30.2-1.4 45.2q-1.8 45.3-5.2 90.5c-4.4 60.2-11.2 120.3-18.4 180c-7.3 59.7-14.9 119.1-16.4 178.4c-0.7 29.7 0.2 59.2 3.4 88.5c3.2 29.3 8.6 58.2 16.2 86.6c15.8 56.7 38.4 112.1 68.5 162.7c14.9 25.4 31.7 49.7 50.1 72.7c4.5 5.9 9.4 11.4 14.1 17.1c4.9 5.5 9.8 11.1 14.8 16.5c9.9 11 20.4 21.5 30.9 31.9h0.1c4.4 4.4 4.6 11.6 0.3 16.2c-4.4 4.7-11.7 5-16.4 0.6c-44.6-41.6-84.2-89.4-115.7-142.1c-15.7-26.3-29.5-53.8-41.3-82.1c-5.8-14.1-11.4-28.4-16.4-42.9c-5.2-14.4-9.6-29.1-13.7-43.9c-16.4-59.4-21.6-121.5-19.5-182.4c2-61.1 10.1-121.1 17.9-180.8c8-59.6 15.8-119 21.1-178.7c5.5-59.7 8.5-119.6 10.4-179.5c1.6-60 1.4-120-0.6-180c-1.8-60.1-5.7-120-10.8-179.9c-0.2-1.7 1-3.2 2.7-3.4z" />
			</g>
			<g id="&lt;Group&gt;">
				<g id="&lt;Group&gt;">
					<path id="&lt;Path&gt;" class="s2" d="m415.4 1933.9c-8 19.9-33.8 25.2-49.1 10.2c-84.8-82.6-303.4-337.7-266.7-744.5c30.9-343.6 15-532.8 1.9-618.2c-2.8-18.1 19.1-29.2 32-16.3c143.1 142 571.9 647.9 281.9 1368.8z" />
					<path id="&lt;Path&gt;" class="s1" d="m386.3 1933.1q-0.6 0.4-1.4 0.7c-4.3 1.6-9.2-0.6-10.8-4.9c-1.8-4.9-183.4-496.5-162-976.2c0.3-4.6 4.2-8.2 8.8-8c4.6 0.3 8.2 4.2 8 8.8c-21.3 476.1 159.1 964.6 160.9 969.5c1.4 3.8-0.1 8-3.5 10.1z" />
				</g>
			</g>
			<g id="&lt;Group&gt;">
				<path id="&lt;Path&gt;" class="s3" d="m2868.7 1526.4c-29.2 664.4-634.2 1177.5-1351.4 1146c-717.1-31.4-1274.9-595.6-1245.7-1260c29.2-664.4 634.2-1177.5 1351.3-1146c717.2 31.5 1274.9 595.6 1245.8 1260z" />
				<path id="&lt;Path&gt;" class="s4" d="m2519.7 1382.6c0 532.1-456.6 963.5-1019.9 963.5c-563.3 0-1019.9-431.4-1019.9-963.5c0-532.2 456.6-963.6 1019.9-963.6c563.3 0 1019.9 431.4 1019.9 963.6z" />
				<g id="&lt;Group&gt;" style="opacity: .7">
					<path id="&lt;Compound Path&gt;" fill-rule="evenodd" class="s1" d="m1902.2 1475.3c-0.3 212.3-14.9 425.2-52.3 634.5c-9.5 52.3-20.5 104.4-33.6 155.9c-13.1 51.6-28.3 102.7-46.8 152.6c-18.7 49.8-40.4 98.9-69.9 143.8c-14.8 22.3-31.7 43.6-52.4 61.2c-10.4 8.7-21.8 16.4-34.4 22.1c-12.5 5.6-26.2 9.2-40.1 9.5c-13.8 0.4-27.7-2.4-40.5-7.5c-12.8-5.1-24.5-12.5-35.1-20.9c-21.3-17-38.5-38.1-53.6-60.2c-30-44.6-52-93.6-70.9-143.3c-18.8-49.9-34.1-100.9-47.3-152.4c-13.3-51.6-24.4-103.6-33.9-155.9c-19.1-104.6-32.1-210.2-40.9-316.1c-8.7-105.9-13-212.1-13.6-318.4c-0.2-53.1 1.2-106.2 3.1-159.3c2-53.1 4.9-106.1 8.8-159.1c7.9-105.9 19.6-211.6 37.1-316.4c8.7-52.4 18.9-104.6 31.2-156.3c12.3-51.7 26.6-103 44.4-153.2c8.9-25.1 18.6-49.9 29.8-74.1c11.1-24.2 23.5-47.9 38.1-70.3c14.6-22.3 31.4-43.5 52.4-60.6c10.5-8.4 22-15.8 34.7-20.7c12.6-5.1 26.2-7.6 39.8-7.1c13.6 0.4 27 3.8 39.4 9.2c12.4 5.5 23.8 12.9 34.2 21.4c20.9 16.9 38.2 37.7 53.5 59.5c30.6 43.9 53.6 92.4 73.5 141.6c19.8 49.5 36.1 100.2 50.3 151.4c14.2 51.2 26.2 103 36.6 155.1c41.1 208.7 57.8 421.5 58.4 634zm-15.7 0c0.2-105.9-3.9-211.7-12.7-317.2c-8.6-105.4-21.8-210.6-41.3-314.6c-9.8-52-21.2-103.7-34.7-154.8c-13.6-51.1-29.3-101.6-48.4-150.9c-19.2-49.1-41.5-97.4-71.1-141c-14.9-21.6-31.7-42.2-51.8-58.9c-10.1-8.3-21-15.6-32.9-21c-11.8-5.3-24.5-8.8-37.4-9.2c-13-0.4-25.9 2.2-37.9 7.1c-12 4.9-23 12.1-33 20.4c-20.1 16.7-36.4 37.7-50.6 59.8c-14.1 22.2-26.1 45.7-36.9 69.8c-10.7 24.1-20.1 48.8-28.7 73.8c-17.1 50-30.7 101.1-42.4 152.7c-11.7 51.6-21.3 103.6-29.4 155.9c-16.2 104.6-26.8 210-33.5 315.7c-6.7 105.6-9 211.5-8.8 317.3c-0.3 105.8 3.2 211.7 11.1 317.2c7.9 105.5 20.1 210.8 38.2 315c9.1 52.1 19.8 103.9 32.5 155.2c12.8 51.3 27.6 102.1 45.8 151.6c18.4 49.4 39.8 98 68.8 141.8c14.5 21.7 31.1 42.3 51.2 58.6c10.1 8.1 21 15.1 32.8 19.9c11.8 4.8 24.4 7.5 37.1 7c12.7-0.3 25.1-3.6 36.7-9c11.6-5.3 22.3-12.7 32.2-21.1c19.6-16.8 35.9-37.7 50.2-59.6c28.4-44.1 49.6-92.8 67.7-142.2c18-49.7 32.6-100.5 45.3-151.8c12.6-51.3 23.1-103.2 32.1-155.3c18-104.2 30-209.5 38-315c8.1-105.5 11.8-211.4 11.8-317.2z" />
					<path id="&lt;Compound Path&gt;" fill-rule="evenodd" class="s1" d="m2438 1475.3c-0.8 136.7-18.3 273.5-55 405.4c-37.2 131.6-93.4 258.2-169.6 371.9c-38.1 56.7-81.3 110.2-129.6 158.7c-48.2 48.4-101.6 91.9-159.5 128.4c-58 36.3-120.6 65.3-186.1 85.1c-65.5 19.7-133.9 30-202.3 30.1c-68.4 0-136.8-10.3-202.4-30c-65.5-19.6-128.2-48.7-186.2-84.9c-58-36.4-111.4-79.9-159.7-128.3c-48.4-48.5-91.7-101.9-129.9-158.7c-76.4-113.6-132.6-240.3-170.1-371.9c-18.4-66-32.1-133.2-41.1-201.1c-9.1-67.9-13.6-136.3-13.9-204.7c0.3-68.5 4.9-136.9 14-204.8c9.1-67.8 22.8-135.1 41.3-201c37.5-131.6 93.9-258.1 170.3-371.7c38.3-56.7 81.5-110.1 129.9-158.5c48.3-48.3 101.7-91.7 159.6-128c58-36.2 120.7-65 186.1-84.7c65.5-19.7 133.7-30 202.1-30.1c68.3 0.1 136.6 10.5 202 30.3c65.4 19.7 128 48.6 185.9 84.8c57.9 36.3 111.3 79.8 159.5 128.2c48.3 48.4 91.5 101.7 129.6 158.5c76.3 113.5 132.5 240 169.9 371.5c36.7 131.9 54.3 268.7 55.2 405.5zm-18.1 0c-0.2-135.3-17-270.6-52.7-401.2c-35.9-130.3-89.9-256.1-164.2-369.2c-37.2-56.6-79.4-109.8-126.7-158.3c-47.3-48.3-99.5-92-156.6-128.4c-57.2-36.2-119-65.3-183.8-84.9c-64.7-19.7-132.3-30.1-200-30.3c-67.7 0.3-135.3 10.7-200 30.4c-64.7 19.8-126.4 48.9-183.6 85.1c-57 36.4-109.2 80.2-156.4 128.6c-47.2 48.4-89.3 101.7-126.4 158.2c-74.2 113.1-128.1 238.9-163.8 369.2c-17.8 65.2-30.7 131.6-39.4 198.6c-8.8 67-13.1 134.6-13.2 202.2c0.2 67.5 4.5 135.1 13.3 202.1c8.8 66.9 21.7 133.4 39.5 198.6c35.8 130.2 89.8 255.9 164.1 368.9c37.1 56.4 79.2 109.7 126.4 158c47.2 48.3 99.3 92.1 156.4 128.4c57.1 36.1 118.8 65 183.4 84.7c64.6 19.8 132.1 30.3 199.7 30.6c67.6-0.3 135.1-10.7 199.7-30.4c64.7-19.7 126.4-48.6 183.6-84.6c57.1-36.3 109.3-80 156.6-128.3c47.3-48.3 89.5-101.5 126.7-158c74.4-113 128.5-238.7 164.5-369c35.7-130.5 52.7-265.8 52.9-401z" />
					<path id="&lt;Path&gt;" class="s1" d="m483.3 1008.5l270.9-2.2l270.9-1.3l541.8-1l541.8 1.1l270.9 1.4l270.9 2.3c0.4 0.1 0.8 0.4 0.8 0.9c0 0.4-0.4 0.7-0.8 0.7l-270.9 2.4l-270.9 1.4l-541.8 1.1l-541.8-1l-270.9-1.3l-270.9-2.2c-0.7 0-1.2-0.5-1.2-1.2c0-0.6 0.5-1.1 1.2-1.1z" />
					<path id="&lt;Path&gt;" class="s1" d="m797.5 554.7c64.1-1 128.3-1.4 192.4-2.2l192.3-1.2c64.1-0.5 128.2-0.5 192.3-0.6l192.4-0.4l384.6 1.1l192.4 1.3c64.1 0.9 128.2 1.3 192.3 2.4c0.4 0 0.8 0.4 0.8 0.8c0 0.4-0.4 0.8-0.8 0.8c-64.1 1.1-128.2 1.6-192.3 2.4l-192.4 1.3l-384.6 1.1l-192.4-0.3c-64.1-0.2-128.2-0.2-192.3-0.7l-192.3-1.2c-64.1-0.8-128.3-1.2-192.4-2.2c-0.6 0-1.1-0.6-1.1-1.2c0-0.7 0.5-1.2 1.1-1.2z" />
					<path id="&lt;Path&gt;" class="s1" d="m389.1 1462.2l294.4-2.2l294.5-1.2l588.9-1l588.8 1.1l294.5 1.3l294.4 2.4c0.5 0 0.8 0.4 0.8 0.8c0 0.4-0.4 0.8-0.8 0.8l-294.4 2.3l-294.5 1.4l-588.8 1.1l-588.9-1l-294.5-1.3l-294.4-2.1c-0.6 0-1.2-0.6-1.2-1.2c0-0.7 0.6-1.2 1.2-1.2z" />
					<path id="&lt;Path&gt;" class="s1" d="m483.3 1915.9l270.9-2.2l270.9-1.2l541.8-1l541.8 1.1l270.9 1.4l270.9 2.3c0.4 0 0.8 0.4 0.8 0.8c0 0.5-0.4 0.8-0.8 0.8l-270.9 2.4l-270.9 1.3l-541.8 1.1l-541.8-1l-270.9-1.2l-270.9-2.2c-0.7 0-1.2-0.5-1.2-1.2c0-0.6 0.5-1.2 1.2-1.2z" />
					<path id="&lt;Path&gt;" class="s1" d="m2375 2375h-1538.7c-2.3 0-4.2-1.8-4.2-4.1c0-2.3 1.9-4.2 4.2-4.2h1538.7c2.3 0 4.1 1.9 4.1 4.2c0 2.3-1.8 4.1-4.1 4.1z" />
				</g>
			</g>
			<g id="&lt;Group&gt;">
				<g id="&lt;Group&gt;">
					<path id="&lt;Path&gt;" class="s5" d="m1248.5 895.8c-1.6 0-3.1-0.8-4.1-2.2c-1.6-2.3-1-5.4 1.3-7q6.9-4.7 13.7-9.5c2.2-1.6 5.4-1.1 7 1.2c1.6 2.3 1 5.4-1.2 7q-6.8 4.8-13.8 9.6c-0.9 0.6-1.9 0.9-2.9 0.9z" />
					<path id="&lt;Compound Path&gt;" class="s5" d="m1287.9 867.5c-1.6 0-3.1-0.7-4.1-2c-1.6-2.2-1.2-5.4 1-7c8.4-6.4 16.8-12.9 24.8-19.5c2.1-1.7 5.3-1.4 7.1 0.7c1.7 2.2 1.4 5.3-0.8 7.1c-8.1 6.6-16.5 13.2-25 19.7c-0.9 0.7-2 1-3 1zm49.1-40c-1.4 0-2.8-0.6-3.8-1.7c-1.8-2.1-1.6-5.3 0.4-7.1c8-7 15.8-14.2 23.3-21.3c2-1.9 5.2-1.8 7.1 0.2c1.9 2 1.8 5.2-0.2 7.1c-7.6 7.2-15.5 14.4-23.5 21.5c-1 0.9-2.2 1.3-3.3 1.3zm45.8-43.8c-1.2 0-2.5-0.4-3.5-1.4c-2-1.9-2-5.1-0.1-7.1c7.3-7.6 14.5-15.3 21.3-23.1c1.8-2.1 5-2.3 7.1-0.4c2.1 1.8 2.3 5 0.4 7c-6.9 7.9-14.1 15.8-21.6 23.5c-1 1-2.3 1.5-3.6 1.5zm41.8-47.6c-1.1 0-2.2-0.3-3.1-1c-2.2-1.8-2.5-4.9-0.8-7.1c6.5-8.2 12.9-16.7 18.9-25.1c1.6-2.2 4.8-2.7 7-1.1c2.3 1.6 2.8 4.7 1.2 7c-6.1 8.5-12.6 17.1-19.3 25.5c-0.9 1.2-2.4 1.8-3.9 1.8zm36.9-51.5c-1 0-1.9-0.2-2.7-0.8c-2.4-1.5-3.1-4.6-1.6-6.9c5.7-8.8 11.1-17.9 16.2-27c1.3-2.4 4.4-3.2 6.8-1.9c2.4 1.4 3.3 4.4 1.9 6.8c-5.1 9.3-10.7 18.5-16.4 27.5c-1 1.5-2.6 2.3-4.2 2.3zm30.9-55.3q-1.1 0-2.2-0.5c-2.5-1.2-3.5-4.2-2.3-6.7c4.6-9.4 8.9-19 12.9-28.6c1.1-2.6 4-3.8 6.6-2.7c2.5 1.1 3.8 4 2.7 6.6c-4.1 9.7-8.5 19.5-13.1 29.1c-0.9 1.8-2.7 2.8-4.6 2.8zm24.3-58.5q-0.8 0-1.6-0.2c-2.7-0.9-4-3.8-3.1-6.4c3.4-9.8 6.5-19.9 9.3-30c0.8-2.6 3.5-4.2 6.2-3.4c2.7 0.7 4.2 3.5 3.5 6.1c-2.9 10.3-6.1 20.6-9.5 30.6c-0.8 2-2.7 3.3-4.8 3.3z" />
					<path id="&lt;Path&gt;" class="s5" d="m1533.8 509.8q-0.6 0-1.1-0.1c-2.7-0.6-4.4-3.3-3.8-6c1.1-5.4 2.2-10.8 3.2-16.2c0.5-2.8 3.1-4.6 5.8-4.1c2.8 0.5 4.6 3.1 4.1 5.9c-1 5.5-2.1 11-3.3 16.5c-0.5 2.4-2.6 4-4.9 4z" />
				</g>
				<g id="&lt;Group&gt;">
					<path id="&lt;Path&gt;" class="s5" d="m1576 526.3c-1.2 0-2.5-0.4-3.5-1.4q-5.9-5.9-11.9-11.9c-1.9-2-1.9-5.2 0.1-7.1c2-1.9 5.1-1.9 7.1 0.1q5.9 5.9 11.8 11.8c1.9 1.9 2 5.1 0 7c-1 1-2.3 1.5-3.6 1.5z" />
					<path id="&lt;Compound Path&gt;" class="s5" d="m1962.8 725q-0.2 0-0.4 0c-10.6-1-21.3-2.3-31.8-4c-2.7-0.4-4.6-3-4.1-5.7c0.4-2.8 2.9-4.6 5.7-4.2c10.3 1.6 20.7 2.9 31.1 3.9c2.8 0.3 4.8 2.7 4.5 5.5c-0.2 2.6-2.4 4.5-5 4.5zm-62.5-9.8q-0.6 0-1.1-0.1c-10.3-2.3-20.8-4.9-31-7.8c-2.7-0.7-4.2-3.5-3.5-6.2c0.8-2.6 3.5-4.2 6.2-3.4c10.1 2.8 20.3 5.4 30.4 7.6c2.8 0.6 4.5 3.3 3.9 6c-0.5 2.3-2.6 3.9-4.9 3.9zm-61-17.2q-0.8 0-1.6-0.3c-10-3.4-20-7.2-29.9-11.3c-2.6-1-3.8-4-2.8-6.5c1.1-2.6 4-3.8 6.6-2.8c9.7 4 19.6 7.8 29.4 11.2c2.6 0.9 4 3.7 3.1 6.3c-0.8 2.1-2.7 3.4-4.8 3.4zm-58.6-24q-1.1 0-2.2-0.5c-9.5-4.5-19.1-9.4-28.5-14.5c-2.4-1.3-3.3-4.3-2-6.8c1.3-2.4 4.4-3.3 6.8-2c9.3 5 18.7 9.8 28 14.2c2.5 1.2 3.6 4.2 2.4 6.7c-0.9 1.8-2.7 2.9-4.5 2.9zm-55.8-30.1c-0.9 0-1.8-0.2-2.6-0.7c-9-5.5-18-11.2-26.9-17.2c-2.3-1.5-2.9-4.6-1.4-6.9c1.6-2.3 4.7-2.9 7-1.4c8.7 5.9 17.7 11.5 26.5 16.9c2.4 1.4 3.2 4.5 1.7 6.9c-0.9 1.5-2.6 2.4-4.3 2.4zm-52.7-35.2c-1 0-2-0.3-2.9-1c-8.5-6.2-17-12.7-25.4-19.3c-2.1-1.7-2.5-4.9-0.8-7.1c1.8-2.1 4.9-2.5 7.1-0.8c8.2 6.6 16.7 13 25 19.1c2.2 1.7 2.7 4.8 1.1 7.1c-1 1.3-2.5 2-4.1 2zm-49.5-39.4c-1.2 0-2.4-0.4-3.3-1.2c-7.9-6.8-15.9-14-23.8-21.2c-2.1-1.9-2.2-5.1-0.3-7.1c1.9-2.1 5.1-2.2 7.1-0.3c7.8 7.2 15.7 14.2 23.5 20.9c2.1 1.9 2.4 5 0.6 7.1c-1 1.2-2.4 1.8-3.8 1.8z" />
					<path id="&lt;Path&gt;" class="s5" d="m2011.2 727.4q0 0 0 0c-5.6 0-11.3-0.1-16.9-0.3c-2.7-0.1-4.9-2.4-4.8-5.2c0.1-2.8 2.3-5 5.2-4.9c5.5 0.2 11 0.3 16.5 0.4c2.8 0 5.1 2.2 5 5c0 2.8-2.2 5-5 5z" />
				</g>
				<g id="&lt;Group&gt;">
					<path id="&lt;Path&gt;" class="s5" d="m2011 726.5c-1.9 0-3.7-1.1-4.6-2.9q-3.5-7.6-7-15.3c-1.2-2.5-0.1-5.5 2.4-6.6c2.6-1.2 5.5-0.1 6.7 2.5q3.5 7.6 7 15.1c1.2 2.5 0.1 5.5-2.4 6.7q-1 0.5-2.1 0.5z" />
					<path id="&lt;Compound Path&gt;" class="s5" d="m2461 1209.7q-1 0-1.9-0.4c-10.5-4.3-21-8.9-31.2-13.8c-2.5-1.2-3.6-4.1-2.4-6.6c1.2-2.6 4.2-3.6 6.7-2.4c10.1 4.7 20.4 9.3 30.7 13.5c2.5 1.1 3.8 4 2.7 6.6c-0.8 1.9-2.7 3.1-4.6 3.1zm-61.1-28.9c-0.8 0-1.6-0.2-2.4-0.6c-9.9-5.4-19.8-11-29.5-16.9c-2.4-1.5-3.2-4.6-1.7-6.9c1.4-2.4 4.5-3.2 6.9-1.7c9.6 5.8 19.4 11.4 29.1 16.6c2.4 1.3 3.4 4.4 2 6.8c-0.9 1.7-2.6 2.7-4.4 2.7zm-57.8-35c-1 0-1.9-0.3-2.8-0.9c-9.3-6.3-18.6-12.9-27.7-19.7c-2.2-1.7-2.7-4.8-1-7.1c1.6-2.2 4.8-2.6 7-1c9 6.7 18.1 13.3 27.3 19.5c2.3 1.5 2.9 4.6 1.4 6.9c-1 1.5-2.6 2.3-4.2 2.3zm-54.1-40.5c-1.1 0-2.3-0.4-3.2-1.1c-8.6-7.2-17.3-14.6-25.8-22.2c-2-1.9-2.2-5.1-0.3-7.1c1.8-2.1 5-2.2 7.1-0.4c8.3 7.5 16.8 14.9 25.4 21.9c2.1 1.8 2.4 4.9 0.7 7.1c-1 1.2-2.5 1.8-3.9 1.8zm-50.2-45.2c-1.3 0-2.6-0.5-3.5-1.4c-8-7.8-16-16-23.9-24.3c-1.9-2-1.8-5.2 0.3-7.1c2-1.9 5.1-1.8 7.1 0.2c7.7 8.2 15.6 16.3 23.5 24c2 2 2 5.1 0.1 7.1c-1 1-2.3 1.5-3.6 1.5zm-46.4-49.1c-1.4 0-2.8-0.6-3.8-1.7c-7.3-8.5-14.7-17.2-21.9-26c-1.7-2.2-1.4-5.3 0.8-7.1c2.1-1.7 5.3-1.4 7 0.7c7.1 8.8 14.4 17.4 21.7 25.8c1.8 2 1.6 5.2-0.5 7c-1 0.9-2.1 1.3-3.3 1.3zm-42.6-52.5c-1.5 0-3-0.7-4-2c-6.8-8.9-13.5-18.1-20.1-27.3c-1.6-2.3-1.1-5.4 1.2-7c2.3-1.7 5.4-1.1 7 1.1c6.5 9.2 13.2 18.4 19.9 27.2c1.6 2.2 1.2 5.3-1 7c-0.9 0.7-2 1-3 1zm-39.1-55.1c-1.6 0-3.2-0.8-4.2-2.2c-6.2-9.3-12.3-18.9-18.4-28.6c-1.4-2.3-0.7-5.4 1.6-6.9c2.4-1.5 5.5-0.7 6.9 1.6c6 9.6 12.2 19.1 18.3 28.3c1.5 2.3 0.9 5.4-1.4 7c-0.9 0.5-1.9 0.8-2.8 0.8zm-35.8-57.3c-1.7 0-3.4-0.9-4.4-2.5c-5.6-9.6-11.3-19.5-16.8-29.4c-1.3-2.5-0.5-5.5 2-6.9c2.4-1.3 5.4-0.4 6.8 2c5.5 9.9 11.1 19.7 16.7 29.2c1.4 2.4 0.6 5.5-1.8 6.9c-0.8 0.5-1.7 0.7-2.5 0.7zm-32.8-59.1c-1.8 0-3.6-1-4.5-2.7c-5.2-9.9-10.4-20.1-15.4-30.2c-1.2-2.5-0.2-5.5 2.3-6.7c2.4-1.2 5.5-0.2 6.7 2.2c5 10.1 10.1 20.2 15.3 30c1.3 2.5 0.3 5.5-2.1 6.8c-0.8 0.4-1.6 0.6-2.3 0.6z" />
					<path id="&lt;Path&gt;" class="s5" d="m2508.6 1227.1q-0.8 0-1.6-0.2q-8-2.6-16-5.4c-2.6-0.9-3.9-3.8-3-6.4c0.9-2.6 3.8-4 6.4-3.1q7.8 2.8 15.7 5.3c2.6 0.9 4.1 3.7 3.2 6.3c-0.6 2.2-2.6 3.5-4.7 3.5z" />
				</g>
				<path id="&lt;Compound Path&gt;" fill-rule="evenodd" class="s5" d="m1603.9 326.4c0 33.5-39.2 111.3-66.9 162c-11.4 21-41.7 21-53.1 0c-27.7-50.7-66.9-128.5-66.9-162c0-51.6 41.8-93.5 93.4-93.5c51.7 0 93.5 41.9 93.5 93.5zm-43.3 0c0-27.7-22.4-50.2-50.2-50.2c-27.7 0-50.1 22.5-50.1 50.2c0 27.8 22.4 50.2 50.1 50.2c27.8 0 50.2-22.4 50.2-50.2z" />
				<path id="&lt;Compound Path&gt;" fill-rule="evenodd" class="s5" d="m2144.8 526.5c0 42.1-49.4 140.1-84.2 203.9c-14.5 26.5-52.5 26.5-67 0c-34.8-63.8-84.2-161.8-84.2-203.9c0-65.1 52.7-117.8 117.7-117.8c65 0 117.7 52.7 117.7 117.8zm-54.5 0c0-34.9-28.3-63.2-63.2-63.2c-34.9 0-63.2 28.3-63.2 63.2c0 34.9 28.3 63.2 63.2 63.2c34.9 0 63.2-28.3 63.2-63.2z" />
				<path id="&lt;Compound Path&gt;" fill-rule="evenodd" class="s5" d="m1348.6 731.7c0 34.7-40.8 115.4-69.4 168c-11.9 21.8-43.3 21.8-55.2 0c-28.6-52.6-69.3-133.3-69.3-168c0-53.5 43.4-96.9 96.9-96.9c53.5 0 97 43.4 97 96.9zm-44.9 0c0-28.7-23.3-52-52.1-52c-28.7 0-52.1 23.3-52.1 52c0 28.8 23.4 52.1 52.1 52.1c28.8 0 52.1-23.3 52.1-52.1z" />
				<path id="&lt;Compound Path&gt;" fill-rule="evenodd" class="s5" d="m2645.7 1119.8c0 34.7-40.7 115.4-69.4 168c-11.9 21.8-43.2 21.8-55.2 0c-28.6-52.6-69.3-133.3-69.3-168c0-53.5 43.4-96.9 96.9-96.9c53.6 0 97 43.4 97 96.9zm-44.9 0c0-28.7-23.3-52-52.1-52c-28.7 0-52 23.3-52 52c0 28.8 23.3 52.1 52 52.1c28.8 0 52.1-23.3 52.1-52.1z" />
			</g>
			<g id="&lt;Group&gt;">
				<path id="&lt;Path&gt;" class="s6" d="m1464.7 1561.2h-1155c-15.2 0-27.5-12.3-27.5-27.6v-519.9c0-15.2 12.3-27.5 27.5-27.5h1155c15.2 0 27.5 12.3 27.5 27.5v519.9c0 15.3-12.3 27.6-27.5 27.6z" />
				<path id="&lt;Path&gt;" class="s7" d="m1433 1536.4h-1096c-15.2 0-27.6-12.4-27.6-27.6v-476.1c0-15.3 12.4-27.6 27.6-27.6h1096c15.2 0 27.5 12.3 27.5 27.6v476.1c0 15.2-12.3 27.6-27.5 27.6z" />
				<g id="&lt;Group&gt;">
					<path id="&lt;Path&gt;" class="s8" d="m562.4 1257.6l106.1-198c70.5 37.9 118.5 112.4 118.5 198c0 46.7-14.2 90-38.6 125.9z" />
					<path id="&lt;Path&gt;" class="s9" d="m562.4 1257.6l-45.3-220c14.6-3 29.8-4.6 45.3-4.6c38.4 0 74.5 9.7 106.1 26.6z" />
					<path id="&lt;Path&gt;" class="s3" d="m562.4 1257.6l-172.5-143.8c31.9-38.3 76.4-65.8 127.2-76.2z" />
					<path id="&lt;Path&gt;" class="s10" d="m748.4 1383.5c-40.4 59.6-108.6 98.7-186 98.7c-91.2 0-169.6-54.3-204.8-132.3l204.8-92.3z" />
					<path id="&lt;Path&gt;" class="s0" d="m562.4 1257.6q-127.9-55.2-207.4-86.3c8.7-21 20.5-40.3 34.9-57.5z" />
					<path id="&lt;Path&gt;" class="s2" d="m562.4 1257.6l-204.8 92.3c-12.7-28.2-19.8-59.4-19.8-92.3c0-30.6 6.1-59.7 17.2-86.3q79.5 31.1 207.4 86.3z" />
				</g>
				<g id="&lt;Group&gt;" style="opacity: .8">
					<path id="&lt;Path&gt;" class="s5" d="m1079 1128c0 6.6-6.9 12-15.5 12h-205c-8.5 0-15.5-5.4-15.5-12c0-6.6 7-12 15.5-12h205c8.6 0 15.5 5.4 15.5 12z" />
					<path id="&lt;Path&gt;" class="s5" d="m1079 1181.1c0 6.6-6.9 11.9-15.5 11.9h-205c-8.5 0-15.5-5.3-15.5-11.9c0-6.7 7-12 15.5-12h205c8.6 0 15.5 5.3 15.5 12z" />
					<path id="&lt;Path&gt;" class="s5" d="m1079 1393.2c0 6.7-6.9 12-15.5 12h-205c-8.5 0-15.5-5.3-15.5-12c0-6.6 7-11.9 15.5-11.9h205c8.6 0 15.5 5.3 15.5 11.9z" />
					<path id="&lt;Path&gt;" class="s5" d="m1079 1340.2c0 6.6-6.9 12-15.5 12h-205c-8.5 0-15.5-5.4-15.5-12c0-6.6 7-12 15.5-12h205c8.6 0 15.5 5.4 15.5 12z" />
					<path id="&lt;Path&gt;" class="s5" d="m1079 1287.1c0 6.7-6.9 12-15.5 12h-205c-8.5 0-15.5-5.3-15.5-12c0-6.6 7-11.9 15.5-11.9h205c8.6 0 15.5 5.3 15.5 11.9z" />
				</g>
				<g id="&lt;Group&gt;" style="opacity: .8">
					<path id="&lt;Path&gt;" class="s5" d="m1414.5 1129.1c0 6.6-6.9 12-15.5 12h-205c-8.6 0-15.5-5.4-15.5-12c0-6.6 6.9-11.9 15.5-11.9h205c8.6 0 15.5 5.3 15.5 11.9z" />
					<path id="&lt;Path&gt;" class="s5" d="m1414.5 1182.2c0 6.6-6.9 12-15.5 12h-205c-8.6 0-15.5-5.4-15.5-12c0-6.6 6.9-12 15.5-12h205c8.6 0 15.5 5.4 15.5 12z" />
					<path id="&lt;Path&gt;" class="s5" d="m1414.5 1394.4c0 6.6-6.9 11.9-15.5 11.9h-205c-8.6 0-15.5-5.3-15.5-11.9c0-6.7 6.9-12 15.5-12h205c8.6 0 15.5 5.3 15.5 12z" />
					<path id="&lt;Path&gt;" class="s5" d="m1414.5 1341.3c0 6.6-6.9 12-15.5 12h-205c-8.6 0-15.5-5.4-15.5-12c0-6.6 6.9-12 15.5-12h205c8.6 0 15.5 5.4 15.5 12z" />
					<path id="&lt;Path&gt;" class="s5" d="m1414.5 1288.3c0 6.6-6.9 12-15.5 12h-205c-8.6 0-15.5-5.4-15.5-12c0-6.6 6.9-12 15.5-12h205c8.6 0 15.5 5.4 15.5 12z" />
				</g>
			</g>
			<g id="&lt;Group&gt;">
				<g id="&lt;Group&gt;">
					<path id="&lt;Path&gt;" class="s11" d="m1556.8 2273.1c7.9 36.6 21.2 83.8 43.5 130.9q-154.2 25.3-276.2 4.2q-42 27-161.5-20.1l42.5-57.6q29-20.3 55.5-25.8q26.5-5.5 49.2 54.2c84.9-8.6 169-41.6 247-85.8z" />
					<path id="&lt;Path&gt;" class="s12" d="m1966.1 2237.8c-114.3 101.4-249.3 147.1-365.8 166.2c-22.3-47.1-35.6-94.3-43.5-130.9q224.8-127.2 399.5-347.3z" />
				</g>
				<path id="&lt;Path&gt;" class="s13" d="m833 2094.7c-31.5 51.3-70 120.3-87.5 176.6c-27.9-6.2-57.2-14.4-88-25l-10.9-291.4q70.6 98.8 186.4 139.8z" />
				<path id="&lt;Path&gt;" class="s14" d="m1269.5 1975q-99.9 389.8-524 296.3c17.5-56.3 56-125.3 87.5-176.6c104.2 36.8 232.8 26.7 391.6-144.7z" />
				<path id="&lt;Path&gt;" class="s15" d="m1256.8 1931.8q18.2-19.7 52.1-13.5c33.9 6.2 64 17.9 85.1 0q21.1-17.9 28.5 6.1l-63.2 48z" />
				<path id="&lt;Path&gt;" class="s16" d="m1219 1965.3q12.5-52.4 50.3-45.2c37.8 7.2 123.5 53.8 145.6 45.2c22.1-8.6 50.4-29.1 64.9-21.8l-25.6 31.7q65.7-37.9 77-14.6l-109.3 61.5q-159.8-16-202.9-56.8z" />
				<path id="&lt;Path&gt;" class="s17" d="m96.9 2915.2q-54.2-773.5 340.8-1014q110.4-72.9 248 68.2c137.6 141.2 93.3 287.9-22.2 425.4c-115.4 137.4-233 383-205.1 520.4z" />
				<path id="&lt;Path&gt;" class="s18" d="m738.7 1770.7l-97.2 200.1q-112.8-37.8-136.4-84.3q131.6-186.8 131.7-196z" />
				<path id="&lt;Path&gt;" class="s19" d="m733 2174.4q237.8 261.5 378.8 202.9q19.3-53 93.3-46.8l-11.1 18.6l151.5 61.4c-1.8 19.7-11 40.2-21.7 58.2c-18.9 31.6-59.2 42.9-91.7 25.7l-77.5-40.9c-15.6-8.2-33.8-9.5-50.5-3.8q-269.5 91.2-519.1-117.8q40.2-65.7 148-157.5z" />
				<path id="&lt;Path&gt;" class="s20" d="m571.6 2331c-1 0-2.1-0.3-3.1-1c-105.4-71.2-154.9-186.1-155.4-187.3c-1.2-2.8 0.1-6 2.9-7.2c2.8-1.2 6.1 0.1 7.3 2.9c0.4 1.2 48.8 113.2 151.4 182.5c2.5 1.7 3.2 5.1 1.5 7.6c-1.1 1.6-2.8 2.5-4.6 2.5z" />
				<path id="&lt;Path&gt;" class="s21" d="m728.1 2172.2c-1.8 0-3.6-0.9-4.6-2.6c-0.3-0.5-32.5-50.5-93.6-160c-18.6-33.3-43.1-54.5-72.7-62.7c-49.1-13.8-96.4 12.6-96.9 12.8c-2.6 1.5-6 0.6-7.5-2.1c-1.5-2.6-0.6-6 2.1-7.5c2.1-1.2 51.6-28.8 105.2-13.9c32.6 9.1 59.3 32 79.4 68c61 109.2 92.9 158.9 93.3 159.4c1.6 2.6 0.9 6-1.7 7.7c-0.9 0.6-2 0.9-3 0.9z" />
				<g id="&lt;Group&gt;">
					<path id="&lt;Path&gt;" class="s22" d="m740.3 1583.4q46.8 107.5 50 163.9c3.1 56.5 15.3 93.1-50 104.4c-65.2 11.4-120.2-21.1-150-77.3q-46.6-86.6-36.1-122.1q10.4-35.4 186.1-68.9z" />
					<path id="&lt;Path&gt;" class="s23" d="m595.9 1734c-2.9 0-5 2.6-4.4 5.4l10.8 48.9c0.6 2.4-1.1 4.9-3.6 5.3c-10.1 1.7-36.3 3.2-71.4-15.6c-33.9-18.1-20.8-31.7-12-37.4c2.5-1.7 2.5-5.2 0.2-7.1c-48.5-39.7-57.5-87.9-35.4-106.5c12.7-10.7 22.2-9 28.1-5.4c3.1 1.9 6.8-0.1 6.9-3.6c1.3-55.6 54.5-88.2 135-103.1c56.7-10.4 77.9-30.8 85.7-43.3c2-3.3 6.9-2.6 8 1.1c1.1 3.8 6.3 4.4 8.2 0.8l2.7-5.1c1.1-2.1 3.7-2.9 5.9-1.9c32.6 14.8 54.4 66.9 29.8 107.2c-25.5 42-143.8 66.1-173.6 78.3c-23.2 9.5-5.3 50.3 3.9 68c2.4 4.6 0.4 10.3-4.3 12.4l-3.8 1.6z" />
					<path id="&lt;Path&gt;" class="s24" d="m606.8 1774.4c-24.8-2.6-71.6-60.3-40.8-79.5q30.8-19.3 48.7 49.4z" />
				</g>
				<path id="&lt;Path&gt;" class="s25" d="m1178.7 2414.1c19.7-17.2 50.2-12.6 64.5 9.4l14.9 23c6.5 10 5.7 22.9-1.8 32.1c-10.7 13-21.6 24.7-26 27.9q-12.2 9-75.7-53c5-18.2 14.1-30.8 24.1-39.4z" />
				<path id="&lt;Path&gt;" class="s26" d="m2161.3 2915.2q-7.8-290.1-169.8-577.8c-50.7-90.1-68.7-194.8-52.9-296.9l17.7-114.7q222.4-75.2 468.9-3.2q341.8 271.1 113.4 992.6z" />
				<path id="&lt;Path&gt;" class="s27" d="m2136.2 1742.7l106.5 152.9c4.3 6.2 2.7 14.7-3.6 18.9c-52.8 34.7-133.2 25.8-166.4 20.1c-9.4-1.6-17.2-7.8-20.9-16.6l-57.6-138.5z" />
				<g id="&lt;Group&gt;">
					<path id="&lt;Path&gt;" class="s3" d="m2754.9 2267.4c6.7-1.7 13.6 2.2 15.6 8.9l93.9 325.4c2 6.7-1.9 13.8-8.7 15.8l-545.7 157.6c-5.8 1.6-12.1-1-14.9-6.4l-166.8-319.9c-3.8-7.3 0.1-16.2 8.1-18.3z" />
					<path id="&lt;Path&gt;" class="s2" d="m2773.8 2249.5c7.3-1.8 14.6 2.8 16.2 10.2l75.4 349.1c1.4 6.9-2.7 13.7-9.4 15.7l-544.1 157.1c-6.7 1.9-13.8-1.7-16.2-8.3l-133.6-362.7c-2.8-7.5 1.7-15.8 9.5-17.7z" />
					<path id="&lt;Path&gt;" class="s28" d="m2763.1 2273.6c8.4-1.3 16.4 4 18.5 12.2l82.4 319.6c2.2 8.7-2.9 17.6-11.5 20.1l-535.7 154.7c-9.2 2.6-18.6-2.9-20.8-12.2l-90.7-391.6c-2.2-9.4 4.1-18.6 13.7-20.1z" />
				</g>
				<path id="&lt;Path&gt;" class="s29" d="m2493.2 2477.2c-23.7-98.1-75.7-223-185-359.3l144-167.9q242.1 241.5 200.5 555.6c-52.2-52.1-128-37.6-159.5-28.4z" />
				<path id="&lt;Path&gt;" class="s30" d="m2493.2 2480.8c-1.6 0-3.1-1.1-3.5-2.8c-29.5-121.6-91.5-242-184.4-357.8c-1.3-1.6-1-3.9 0.6-5.2c1.5-1.3 3.9-1 5.1 0.6c93.6 116.6 156.1 238 185.8 360.7c0.5 2-0.7 4-2.7 4.4q-0.4 0.2-0.9 0.1z" />
				<path id="&lt;Path&gt;" class="s31" d="m2652.7 2505.6c-10.6 80-39.6 164.7-95.6 251.3q-83.9 133.9-210.9 14.3l77.3-22c7.4-2 8.6-11.9 2-15.7c-18.1-10.6-44.3-28.6-54.6-48.8c-4-7.7 5.2-15.5 12.3-10.5c13.8 9.8 34.5 21.6 53.1 20.5c17-0.9 36-2.2 49.9-3.2c12.3-0.8 22.2-10.4 23.4-22.7c3.4-32.4 5.7-100.5-16.4-191.6c31.5-9.2 107.3-23.7 159.5 28.4z" />
				<g id="&lt;Group&gt;">
					<path id="&lt;Path&gt;" class="s32" d="m2186.9 1648.7l-122.2 171.7l-113.1-54.6q99.8-196 102.2-198.3q40.5-38.1 133.1 81.2z" />
					<path id="&lt;Path&gt;" class="s33" d="m2136.8 1653.4c-5.5-14.3-19.4-41.8-44.6-45c-34.3-4.4-88.9-30.5-78-67.4c10.9-36.9 53.6-80.6 102.4-53.8c26.6 14.7 29.1 36.3 25.8 53c-1.9 9.7 4.5 18.6 14.2 20.5c5.1 1.1 7.9 4 9.3 7.4c3.2 7.6 11.5 11.9 19.7 10.9c18.5-2.3 45.7 0.4 60.9 29.8c15 29.1-0.8 47.1-15.3 56.6c-8.1 5.4-10.8 16.3-5.6 24.6c20.8 33.1-1.9 52.6-15 60.4c-4.3 2.7-9.5 3.3-14.4 1.9c-12.8-3.7-41.3-9.5-56.7 5.9c-16.7 16.6-65.4 82.7-82.7 106.4c-3.9 5.4-10.4 8.2-17 7.3c-40.2-5.6-85.4-22.4-108.3-31.6c-8.7-3.5-13.3-13.1-10.5-22.1c11.3-35.6 29.3-73.1 38.6-91.5c4.5-9 15.5-12.7 24.4-8c15.2 7.9 29.4 27 44.5 48.1c17.8 24.8 40.8 6.6 47.5 0.4q1.8-1.7 3.1-3.9l56.4-94c2.8-4.8 3.3-10.6 1.3-15.9z" />
					<path id="&lt;Path&gt;" class="s34" d="m2118.3 1792.8q21.7-63.5 49.4-61.2c27.8 2.3 49.7 30 15.3 61.1q-42.9 38.7-64.7 0.1z" />
				</g>
			</g>
			<g id="&lt;Group&gt;">
				<path id="&lt;Path&gt;" class="s35" d="m1776.1 1609.4c14 110.2 1.6 227.5-8.2 293.1c-4.4 30-30.3 52.1-60.7 51.9l-622-3.7c-45.5-0.2-82.6-36.3-84.1-81.6l-8.3-259.7z" />
				<path id="&lt;Compound Path&gt;" class="s5" d="m1694.3 1939.5c-1 0-1.8-0.8-1.9-1.8c0-1 0.8-1.8 1.8-1.9c3.6-0.1 7.2-0.6 10.7-1.4c1-0.2 2 0.4 2.2 1.4c0.3 1-0.4 2-1.4 2.2c-3.7 0.9-7.5 1.4-11.3 1.5q-0.1 0-0.1 0zm-26-0.1q0 0 0 0h-11.1c-1.1 0-1.9-0.9-1.9-1.9c0-1 0.9-1.8 1.9-1.8q0 0 0 0h11.1c1 0 1.9 0.9 1.9 1.9c0 1-0.9 1.8-1.9 1.8zm-37.1-0.2q0 0 0 0h-11.2c-1-0.1-1.8-0.9-1.8-1.9c0-1 0.8-1.9 1.9-1.9q0 0 0 0l11.1 0.1c1 0 1.9 0.9 1.8 1.9c0 1-0.8 1.8-1.8 1.8zm-37.1-0.2q0 0 0 0l-11.2-0.1c-1 0-1.8-0.8-1.8-1.8c0-1.1 0.8-1.9 1.8-1.9q0 0 0.1 0l11.1 0.1c1 0 1.8 0.8 1.8 1.9c0 1-0.8 1.8-1.8 1.8zm-37.1-0.2q0 0 0 0l-11.2-0.1c-1 0-1.8-0.8-1.8-1.8c0-1.1 1-1.9 1.8-1.9l11.2 0.1c1 0 1.8 0.8 1.8 1.8c0 1.1-0.8 1.9-1.8 1.9zm-37.2-0.2q0 0 0 0l-11.1-0.1c-1 0-1.8-0.8-1.8-1.9c0-1 0.8-1.8 1.8-1.8q0 0 0 0l11.2 0.1c1 0 1.8 0.8 1.8 1.8c0 1-0.8 1.9-1.9 1.9zm-37.1-0.3q0 0 0 0h-11.1c-1 0-1.9-0.9-1.9-1.9c0-1 0.9-1.8 1.9-1.8q0 0 0 0h11.1c1.1 0 1.9 0.9 1.9 1.9c0 1-0.9 1.8-1.9 1.8zm-37.1-0.2q0 0 0 0h-11.1c-1.1 0-1.9-0.9-1.9-1.9c0-1 0.9-1.9 1.9-1.9q0 0 0 0l11.1 0.1c1 0 1.9 0.9 1.9 1.9c0 1-0.9 1.8-1.9 1.8zm-37.1-0.2q0 0 0 0l-11.1-0.1c-1.1 0-1.9-0.8-1.9-1.8c0-1 0.8-1.9 1.9-1.9q0 0 0 0l11.1 0.1c1 0 1.9 0.8 1.9 1.9c-0.1 1-0.9 1.8-1.9 1.8zm-37.1-0.2q0 0 0 0l-11.2-0.1c-1 0-1.8-0.8-1.8-1.8c0-1.1 0.8-1.9 1.8-1.9q0.1 0 0.1 0l11.1 0.1c1 0 1.8 0.8 1.8 1.8c0 1.1-0.8 1.9-1.8 1.9zm-37.1-0.2q0 0 0 0l-11.2-0.1c-1 0-1.8-0.8-1.8-1.9c0-1 0.8-1.8 1.8-1.8q0 0 0 0l11.2 0.1c1 0 1.8 0.8 1.8 1.8c0 1-0.8 1.9-1.8 1.9zm-37.2-0.2q0 0 0 0l-11.1-0.1c-1 0-1.8-0.9-1.8-1.9c0-1 0.8-1.8 1.8-1.8q0 0 0 0h11.2c1 0 1.8 0.9 1.8 1.9c0 1-0.8 1.9-1.9 1.9zm-37.1-0.3q0 0 0 0h-11.1c-1 0-1.9-0.9-1.9-1.9c0-1 0.9-1.8 1.9-1.8q0 0 0 0h11.1c1.1 0 1.9 0.9 1.9 1.9c0 1-0.8 1.8-1.9 1.8zm-37.1-0.2q0 0 0 0l-11.1-0.1c-1.1 0-1.9-0.8-1.9-1.8c0-1 0.9-1.9 1.9-1.9q0 0 0 0l11.1 0.1c1.1 0 1.9 0.8 1.9 1.9c0 1-0.9 1.8-1.9 1.8zm-37.1-0.2q0 0 0 0l-11.1-0.1c-1.1 0-1.9-0.8-1.9-1.8c0-1.1 1-1.8 1.9-1.9l11.1 0.1c1 0 1.9 0.8 1.9 1.9c0 1-0.9 1.8-1.9 1.8zm-37.1-0.2q0 0 0 0l-11.2-0.1c-1 0-1.8-0.8-1.8-1.9c0-1 0.8-1.8 1.8-1.8q0.1 0 0.1 0l11.1 0.1c1 0 1.8 0.8 1.8 1.8c0 1.1-0.8 1.9-1.8 1.9zm-37.1-0.2q0 0 0 0l-11.2-0.1c-1 0-1.8-0.8-1.8-1.9c0-1 0.8-1.8 1.8-1.8q0 0 0 0h11.2c1 0.1 1.8 0.9 1.8 1.9c0 1-0.8 1.9-1.8 1.9zm-36.7-4.2q-0.3 0-0.6-0.1c-3.6-1.2-7.1-2.6-10.5-4.3c-0.9-0.4-1.3-1.6-0.9-2.5c0.5-0.9 1.6-1.3 2.5-0.8c3.3 1.6 6.7 3 10.1 4.1c0.9 0.3 1.5 1.4 1.2 2.3c-0.3 0.8-1 1.3-1.8 1.3zm653.6-5.2c-0.6 0-1.1-0.2-1.5-0.7c-0.6-0.8-0.5-1.9 0.3-2.6c2.8-2.2 5.4-4.8 7.8-7.5c0.6-0.8 1.8-0.9 2.6-0.2c0.7 0.7 0.8 1.8 0.2 2.6c-2.5 2.9-5.3 5.6-8.3 8c-0.3 0.3-0.7 0.4-1.1 0.4zm-685-14c-0.4 0-0.9-0.2-1.3-0.5c-2.7-2.7-5.2-5.6-7.5-8.6c-0.6-0.8-0.5-2 0.4-2.6c0.8-0.6 1.9-0.5 2.6 0.4c2.1 2.8 4.6 5.6 7.1 8.1c0.8 0.7 0.8 1.9 0.1 2.6c-0.4 0.4-0.9 0.6-1.4 0.6zm704.8-16.6q-0.2 0-0.4 0c-1-0.3-1.6-1.3-1.4-2.3q0.8-2.9 1.2-5.8l0.7-5c0.2-1 1.1-1.7 2.2-1.5c1 0.1 1.7 1.1 1.5 2.1l-0.7 4.9q-0.5 3.2-1.3 6.2c-0.2 0.9-0.9 1.4-1.8 1.4zm-724.3-14.6c-0.8 0-1.5-0.5-1.8-1.2c-1.2-3.6-2.2-7.3-2.9-11c-0.2-1 0.5-2 1.5-2.2c1-0.2 2 0.5 2.2 1.5c0.6 3.5 1.6 7.1 2.7 10.5c0.4 0.9-0.1 2-1.1 2.3q-0.3 0.1-0.6 0.1zm729.7-22.1q-0.1 0-0.2 0c-1-0.1-1.7-1.1-1.6-2.1q0.7-5.4 1.3-11c0.1-1 1.1-1.8 2.1-1.6c1 0.1 1.7 1 1.6 2q-0.6 5.7-1.3 11.1c-0.1 0.9-0.9 1.6-1.9 1.6zm-734.4-14.5c-1 0-1.8-0.8-1.8-1.8l-0.4-11.1c0-1.1 0.8-1.9 1.8-1.9c1-0.1 1.9 0.7 1.9 1.8l0.4 11.1c0 1-0.8 1.9-1.8 1.9q0 0-0.1 0zm738.5-22.4q-0.1 0-0.2 0c-1-0.1-1.8-1-1.7-2q0.6-5.5 1.1-11.1c0-1 0.9-1.7 2-1.7c1 0.1 1.7 1 1.7 2q-0.5 5.7-1.1 11.1c0 1-0.9 1.7-1.8 1.7zm-739.6-14.7c-1 0-1.9-0.8-1.9-1.8l-0.4-11.1c0-1 0.8-1.9 1.8-1.9c1-0.1 1.9 0.7 2 1.8l0.3 11.1c0 1-0.8 1.9-1.8 1.9q0 0 0 0zm742.6-22.3q-0.1 0-0.1 0c-1.1-0.1-1.8-0.9-1.8-2q0.4-5.5 0.7-11.1c0.1-1 1-1.8 2-1.7c1 0 1.8 0.9 1.7 1.9q-0.3 5.7-0.7 11.2c0 1-0.8 1.7-1.8 1.7zm-743.8-14.8c-1 0-1.9-0.8-1.9-1.8l-0.3-11.1c-0.1-1 0.7-1.9 1.7-1.9c1-0.1 1.9 0.7 2 1.8l0.3 11.1c0.1 1-0.8 1.9-1.8 1.9q0 0 0 0zm745.7-22.3q-0.1 0-0.1 0c-1 0-1.8-0.9-1.8-1.9q0.2-5.5 0.3-11.1c0-1 1-1.8 1.9-1.8c1 0 1.9 0.9 1.8 1.9q-0.1 5.6-0.3 11.1c0 1-0.8 1.8-1.8 1.8zm-746.9-14.8c-1 0-1.9-0.8-1.9-1.8l-0.3-11.1c-0.1-1 0.7-1.9 1.8-1.9c0.9 0 1.8 0.7 1.9 1.8l0.3 11.1c0.1 1-0.7 1.9-1.8 1.9q0 0 0 0zm747.5-22.3c-1 0-1.9-0.8-1.9-1.8q0-5.6-0.1-11.1c0-1.1 0.9-1.9 1.9-1.9c0.9 0 1.8 0.8 1.9 1.8q0 5.6 0 11.2c0 1-0.8 1.8-1.8 1.8zm-748.7-14.8c-1 0-1.8-0.8-1.9-1.8l-0.3-11.1c-0.1-1 0.7-1.9 1.8-1.9c0.8-0.1 1.8 0.7 1.9 1.8l0.3 11.1c0.1 1-0.7 1.9-1.8 1.9q0 0 0 0zm747.9-22.3c-1 0-1.8-0.8-1.9-1.8q-0.2-5.5-0.5-11.1c0-1 0.7-1.9 1.8-1.9c1-0.1 1.9 0.7 1.9 1.7q0.3 5.6 0.6 11.2c0 1-0.8 1.9-1.8 1.9q-0.1 0-0.1 0zm-749.1-14.8c-1 0-1.8-0.8-1.9-1.8l-0.3-11.1c-0.1-1 0.7-1.9 1.8-1.9c0.8-0.1 1.9 0.7 1.9 1.8l0.3 11.1c0.1 1-0.7 1.9-1.8 1.9q0 0 0 0zm746.7-22.2c-0.9 0-1.7-0.7-1.8-1.7q-0.5-5.5-1.1-11.1c-0.1-1 0.6-1.9 1.7-2c1-0.1 1.9 0.6 2 1.6q0.6 5.6 1.1 11.2c0.1 1-0.7 1.9-1.7 2q-0.1 0-0.2 0zm-747.9-14.9c-1 0-1.8-0.8-1.9-1.8l-0.3-11.1c-0.1-1 0.8-1.9 1.8-1.9c0.9 0 1.9 0.7 1.9 1.8l0.3 11.1c0.1 1-0.7 1.9-1.7 1.9q-0.1 0-0.1 0zm734.2-11.1h-11.2c-1 0-1.8-0.8-1.8-1.9c0-1 0.8-1.8 1.8-1.8h11.2c1 0 1.8 0.8 1.8 1.8c0 1.1-0.8 1.9-1.8 1.9zm-37.2 0h-11.1c-1 0-1.9-0.8-1.9-1.9c0-1 0.9-1.8 1.9-1.8h11.1c1.1 0 1.9 0.8 1.9 1.8c0 1.1-0.8 1.9-1.9 1.9zm-37.1 0h-11.1c-1 0-1.9-0.8-1.9-1.9c0-1 0.9-1.8 1.9-1.8h11.1c1 0 1.9 0.8 1.9 1.8c0 1.1-0.9 1.9-1.9 1.9zm-37.1 0h-11.1c-1.1 0-1.9-0.8-1.9-1.9c0-1 0.8-1.8 1.9-1.8h11.1c1 0 1.9 0.8 1.9 1.8c0 1.1-0.9 1.9-1.9 1.9zm-37.1 0h-11.1c-1.1 0-1.9-0.8-1.9-1.9c0-1 0.8-1.8 1.9-1.8h11.1c1 0 1.8 0.8 1.8 1.8c0 1.1-0.8 1.9-1.8 1.9zm-37.1 0h-11.2c-1 0-1.8-0.8-1.8-1.9c0-1 0.8-1.8 1.8-1.8h11.2c1 0 1.8 0.8 1.8 1.8c0 1.1-0.8 1.9-1.8 1.9zm-37.1 0h-11.2c-1 0-1.8-0.8-1.8-1.9c0-1 0.8-1.8 1.8-1.8h11.2c1 0 1.8 0.8 1.8 1.8c0 1.1-0.8 1.9-1.8 1.9zm-37.2 0h-11.1c-1 0-1.9-0.8-1.9-1.9c0-1 0.9-1.8 1.9-1.8h11.1c1.1 0 1.9 0.8 1.9 1.8c0 1.1-0.8 1.9-1.9 1.9zm-37.1 0h-11.1c-1 0-1.9-0.8-1.9-1.9c0-1 0.9-1.8 1.9-1.8h11.1c1 0 1.9 0.8 1.9 1.8c0 1.1-0.9 1.9-1.9 1.9zm-37.1 0h-11.1c-1.1 0-1.9-0.8-1.9-1.9c0-1 0.8-1.8 1.9-1.8h11.1c1 0 1.9 0.8 1.9 1.8c0 1.1-0.9 1.9-1.9 1.9zm-37.1 0h-11.1c-1.1 0-1.9-0.8-1.9-1.9c0-1 0.8-1.8 1.9-1.8h11.1c1 0 1.8 0.8 1.8 1.8c0 1.1-0.8 1.9-1.8 1.9zm-37.1 0h-11.2c-1 0-1.8-0.8-1.8-1.9c0-1 0.8-1.8 1.8-1.8h11.2c1 0 1.8 0.8 1.8 1.8c0 1.1-0.8 1.9-1.8 1.9zm-37.1 0h-11.2c-1 0-1.8-0.8-1.8-1.9c0-1 0.8-1.8 1.8-1.8h11.2c1 0 1.8 0.8 1.8 1.8c0 1.1-0.8 1.9-1.8 1.9zm-37.2 0h-11.1c-1 0-1.9-0.8-1.9-1.9c0-1 0.9-1.8 1.9-1.8h11.1c1.1 0 1.9 0.8 1.9 1.8c0 1.1-0.8 1.9-1.9 1.9zm-37.1 0h-11.1c-1 0-1.9-0.8-1.9-1.9c0-1 0.9-1.8 1.9-1.8h11.1c1 0 1.9 0.8 1.9 1.8c0 1.1-0.9 1.9-1.9 1.9zm-37.1 0h-11.1c-1.1 0-1.9-0.8-1.9-1.9c0-1 0.8-1.8 1.9-1.8h11.1c1 0 1.9 0.8 1.9 1.8c0 1.1-0.9 1.9-1.9 1.9zm-37.1 0h-11.1c-1.1 0-1.9-0.8-1.9-1.9c0-1 0.8-1.8 1.9-1.8h11.1c1 0 1.8 0.8 1.8 1.8c0 1.1-0.8 1.9-1.8 1.9zm-37.1 0h-11.2c-1 0-1.8-0.8-1.8-1.9c0-1 0.8-1.8 1.8-1.8h11.2c1 0 1.8 0.8 1.8 1.8c0 1.1-0.8 1.9-1.8 1.9zm-37.1 0h-11.2c-1 0-1.8-0.8-1.8-1.9c0-1 0.8-1.8 1.8-1.8h11.2c1 0 1.8 0.8 1.8 1.8c0 1.1-0.8 1.9-1.8 1.9zm-37.2 0h-11.1c-1 0-1.9-0.8-1.9-1.9c0-1 0.9-1.8 1.9-1.8h11.1c1.1 0 1.9 0.8 1.9 1.8c0 1.1-0.8 1.9-1.9 1.9z" />
				<path id="&lt;Path&gt;" class="s36" d="m1175 1420.9l1.9-20c2.1-4.8 6.5-8.2 11.7-9c19.3-3.1 67.4-8.5 90.5 8.8l3.5 23.2z" />
				<path id="&lt;Path&gt;" class="s37" d="m1235.5 1401.6q-6.7 1.7-13.4 0c-5.4-1.3-9.2-6.2-9.2-11.7v-62.7h31.9v62.6c0 5.6-3.8 10.5-9.3 11.8z" />
				<path id="&lt;Path&gt;" class="s38" d="m1484.2 1420.9l1.8-20c2.1-4.8 6.5-8.2 11.7-9c19.4-3.1 67.4-8.5 90.6 8.8l3.4 23.2z" />
				<path id="&lt;Path&gt;" class="s39" d="m1544.7 1401.6q-6.7 1.7-13.4 0c-5.4-1.3-9.3-6.2-9.3-11.7v-69.4h32v69.3c0 5.6-3.9 10.5-9.3 11.8z" />
				<path id="&lt;Path&gt;" class="s40" d="m1194.7 1331.3c-3-12.9-1.4-25.5 0.9-34.9c2.4-9.9 9.4-18 18.9-21.8c89.9-35.5 252.9-35.6 316.9-34c19.3 0.4 35.6 14.5 38.4 33.5c2.4 16.7 0.8 32.7-1.1 43.5c-1.3 7.7-8 13.3-15.8 13.6l-343.2 11.3c-7.1 0.3-13.4-4.4-15-11.2z" />
				<path id="&lt;Path&gt;" class="s41" d="m1203.7 1326.9c-1.9 0-3.5-1.4-3.7-3.3c0-0.6-1.3-13.9 2.1-26.7c2.8-10.2 10.8-18.4 21-21.4c19.3-5.6 56-15.2 86.1-16c2.1-0.1 3.8 1.5 3.8 3.6c0.1 2-1.5 3.7-3.6 3.8c-29.3 0.8-65.3 10.2-84.2 15.8c-7.7 2.2-13.8 8.4-15.9 16.1c-3.1 11.5-1.9 23.9-1.9 24c0.2 2-1.3 3.9-3.3 4.1q-0.2 0-0.4 0z" />
				<path id="&lt;Path&gt;" class="s42" d="m1015.8 1413.1c110.9-1.4 590.6-6.5 729.9 10.3c12 1.5 21.8 10.3 24.4 22c8.2 37.2 24.8 123.7 22.8 209.4c-0.2 11.7-8.8 21.5-20.3 23.7l-318.1 60.2h-113l-338.9-67.4c-11.9-2.3-20.7-12.5-21.4-24.6c-2.2-43.1-5.6-144.3 6.1-209.4c2.4-13.9 14.3-24 28.5-24.2z" />
				<path id="&lt;Compound Path&gt;" class="s5" d="m1344.2 1713.1q-0.2 0-0.3 0l-11-2.2c-1-0.2-1.6-1.1-1.4-2.1c0.2-1 1.2-1.7 2.2-1.5l10.8 2.1q0.1 0 0.2 0h11.2c1 0 1.8 0.9 1.8 1.9c0 1-0.8 1.8-1.8 1.8h-11.2q-0.1 0-0.2 0q-0.1 0-0.3 0zm85.9 0h-11.1c-1.1 0-1.9-0.8-1.9-1.8c0-1 0.8-1.9 1.9-1.9h11.1c1 0 1.9 0.9 1.9 1.9c0 1-0.9 1.8-1.9 1.8zm-37.1 0h-11.1c-1.1 0-1.9-0.8-1.9-1.8c0-1 0.8-1.9 1.9-1.9h11.1c1 0 1.8 0.9 1.8 1.9c0 1-0.8 1.8-1.8 1.8zm63-0.7c-0.9 0-1.6-0.6-1.8-1.5c-0.2-1 0.5-2 1.5-2.2l10.9-2.1c1-0.2 2 0.5 2.2 1.5c0.2 1-0.5 2-1.5 2.2l-10.9 2q-0.2 0.1-0.4 0.1zm-148.2-6.5q-0.2 0-0.3 0l-11-2.2c-1-0.2-1.6-1.2-1.4-2.2c0.2-1 1.1-1.6 2.2-1.4l10.9 2.1c1 0.2 1.6 1.2 1.4 2.2c-0.1 0.9-0.9 1.5-1.8 1.5zm184.7-0.4c-0.9 0-1.7-0.6-1.8-1.5c-0.2-1 0.4-2 1.4-2.2l11-2.1c1-0.2 2 0.5 2.2 1.5c0.1 1-0.5 2-1.5 2.2l-11 2q-0.1 0.1-0.3 0.1zm-221.1-6.8q-0.2 0-0.3-0.1l-11-2.1c-1-0.2-1.6-1.2-1.4-2.2c0.2-1 1.1-1.7 2.2-1.5l10.9 2.2c1 0.2 1.6 1.2 1.4 2.2c-0.1 0.9-0.9 1.5-1.8 1.5zm257.6-0.1c-0.9 0-1.7-0.6-1.9-1.5c-0.2-1 0.5-2 1.5-2.2l11-2.1c1-0.1 1.9 0.5 2.1 1.5c0.2 1-0.5 2-1.5 2.2l-10.9 2q-0.2 0.1-0.3 0.1zm36.4-6.9c-0.9 0-1.6-0.6-1.8-1.5c-0.2-1 0.5-2 1.5-2.2l10.9-2.1c1-0.2 2 0.5 2.2 1.5c0.2 1-0.5 2-1.5 2.2l-10.9 2q-0.2 0.1-0.4 0.1zm-330.4-0.3q-0.2 0-0.3 0l-11-2.2c-1-0.2-1.6-1.1-1.4-2.2c0.2-1 1.1-1.6 2.2-1.4l10.9 2.2c1 0.2 1.6 1.1 1.4 2.1c-0.1 0.9-0.9 1.5-1.8 1.5zm366.9-6.6c-0.9 0-1.7-0.6-1.8-1.5c-0.2-1 0.4-2 1.5-2.2l10.9-2.1c1-0.2 2 0.5 2.2 1.5c0.2 1-0.5 2-1.5 2.2l-11 2q-0.1 0.1-0.3 0.1zm-403.3-0.6q-0.2 0-0.4 0l-10.9-2.2c-1-0.2-1.6-1.2-1.4-2.2c0.2-1 1.2-1.7 2.1-1.4l11 2.1c1 0.2 1.6 1.2 1.4 2.2c-0.1 0.9-0.9 1.5-1.8 1.5zm439.8-6.3c-0.9 0-1.7-0.6-1.9-1.5c-0.1-1 0.5-2 1.5-2.2l11-2.1c1-0.1 1.9 0.5 2.1 1.5c0.2 1-0.4 2-1.4 2.2l-11 2q-0.2 0.1-0.3 0.1zm-476.2-0.9q-0.2 0-0.4-0.1l-10.9-2.1c-1-0.2-1.6-1.2-1.4-2.2c0.2-1 1.1-1.7 2.1-1.5l11 2.2c1 0.2 1.6 1.2 1.4 2.2c-0.2 0.8-0.9 1.5-1.8 1.5zm512.6-6c-0.8 0-1.6-0.6-1.8-1.5c-0.2-1 0.5-2 1.5-2.2l10.9-2.1c1-0.2 2 0.5 2.2 1.5c0.2 1-0.5 2-1.5 2.2l-10.9 2q-0.2 0.1-0.4 0.1zm-549-1.3q-0.2 0-0.4 0l-10.9-2.2c-1-0.2-1.6-1.2-1.4-2.2c0.2-1 1.1-1.6 2.1-1.4l11 2.2c1 0.2 1.6 1.1 1.4 2.1c-0.2 0.9-0.9 1.5-1.8 1.5zm585.5-5.6c-0.9 0-1.6-0.6-1.8-1.5c-0.2-1 0.5-2 1.5-2.2l10.9-2.1c1-0.1 2 0.5 2.2 1.5c0.2 1-0.5 2-1.5 2.2l-11 2q-0.1 0.1-0.3 0.1zm-621.9-1.6q-0.2 0-0.4 0l-10.9-2.2c-1-0.2-1.6-1.2-1.4-2.2c0.2-1 1.1-1.7 2.1-1.5l11 2.2c1 0.2 1.6 1.2 1.4 2.2c-0.2 0.9-0.9 1.5-1.8 1.5zm658.4-5.3c-0.9 0-1.7-0.6-1.8-1.5c-0.2-1 0.4-2 1.4-2.2l11-2.1c1-0.1 2 0.5 2.1 1.5c0.2 1-0.4 2-1.4 2.2l-11 2q-0.2 0.1-0.3 0.1zm-694.8-1.9q-0.2 0-0.4-0.1l-10.9-2.2c-1-0.2-1.7-1.1-1.4-2.1c0.1-1 1.1-1.7 2.1-1.5l11 2.2c1 0.2 1.6 1.2 1.4 2.2c-0.2 0.8-0.9 1.5-1.8 1.5zm-36.4-7.3q-0.2 0-0.4 0l-9.4-1.9l-0.2-4.4c-0.1-1 0.7-1.9 1.7-1.9c1-0.3 1.9 0.7 2 1.7l0.1 1.5l6.5 1.3c1.1 0.2 1.7 1.2 1.5 2.2c-0.2 0.9-0.9 1.5-1.8 1.5zm749-13.2c-1 0-1.8-0.8-1.8-1.8q-0.1-5.6-0.2-11.1c-0.1-1 0.7-1.9 1.8-1.9c0.9 0 1.8 0.7 1.9 1.8q0.1 5.5 0.2 11.1c0 1.1-0.8 1.9-1.8 1.9q0 0-0.1 0zm-758.2-17.3c-1 0-1.9-0.8-1.9-1.8q-0.2-5.4-0.3-11.1c-0.1-1.1 0.7-1.9 1.8-1.9c1 0 1.8 0.7 1.9 1.8q0.1 5.7 0.3 11.1c0 1-0.8 1.9-1.8 1.9q0 0 0 0zm756.8-19.8c-1 0-1.8-0.7-1.9-1.7q-0.3-5.6-0.8-11.1c0-1 0.7-1.9 1.7-2c1-0.1 2 0.7 2 1.7q0.5 5.6 0.8 11.2c0.1 1-0.7 1.9-1.7 1.9q-0.1 0-0.1 0zm-757.7-17.3c-1 0-1.8-0.8-1.8-1.8q-0.1-5.5-0.1-11.2c0-1 0.8-1.9 1.8-1.9c1 0 1.9 0.9 1.9 1.9q0 5.6 0.1 11.1c0 1-0.8 1.9-1.9 1.9q0 0 0 0zm754.5-19.7c-1 0-1.8-0.7-1.9-1.6q-0.6-5.6-1.2-11.1c-0.2-1 0.6-1.9 1.6-2c1-0.2 1.9 0.6 2 1.6q0.7 5.5 1.3 11.1c0.1 1-0.6 1.9-1.6 2q-0.1 0-0.2 0zm-754.4-17.4q-0.1 0-0.1 0c-1 0-1.8-0.9-1.8-1.9q0.1-5.6 0.2-11.2c0-1 0.9-1.7 1.9-1.8c1 0 1.9 0.9 1.8 1.9q-0.1 5.6-0.2 11.1c0 1.1-0.8 1.9-1.8 1.9zm749.7-19.4c-1 0-1.7-0.7-1.9-1.6q-0.8-5.6-1.7-11c-0.1-1 0.6-1.9 1.6-2.1c1-0.1 1.9 0.5 2.1 1.6q0.9 5.3 1.7 11c0.1 1-0.6 1.9-1.6 2.1q-0.1 0-0.2 0zm-748.5-17.7q-0.1 0-0.1 0c-1.1-0.1-1.8-1-1.8-2q0.3-5.6 0.7-11.1c0-1.1 0.9-1.9 1.9-1.8c1.1 0.1 1.8 1 1.8 2q-0.4 5.5-0.7 11.1c0 1-0.9 1.8-1.8 1.8zm742.4-18.9c-0.9 0-1.7-0.7-1.8-1.6q-1.1-5.7-2.1-10.9c-0.2-1 0.5-2 1.5-2.2c1-0.2 2 0.5 2.2 1.5q1 5.2 2 11c0.2 1-0.5 2-1.5 2.1q-0.1 0.1-0.3 0.1zm-739.5-18.1q-0.1 0-0.2-0.1c-1-0.1-1.8-1-1.7-2q0.7-5.7 1.4-11.1c0.1-1 1.1-1.8 2.1-1.6c1 0.1 1.7 1.1 1.6 2.1q-0.8 5.4-1.4 11c-0.1 1-0.9 1.7-1.8 1.7zm730.6-16.8q-0.1 0-0.2 0q-5.2-0.6-11.1-1.2c-1-0.1-1.7-1-1.6-2.1c0.1-1 0.9-1.7 2-1.6q5.9 0.6 11.1 1.2c1 0.1 1.7 1 1.6 2c-0.1 1-0.9 1.7-1.8 1.7zm-37-3.4q-0.1 0-0.1 0q-5.4-0.4-11.1-0.7c-1-0.1-1.8-1-1.8-2c0.1-1 1-1.8 2-1.7q5.8 0.3 11.1 0.7c1.1 0.1 1.8 1 1.8 2c-0.1 1-0.9 1.7-1.9 1.7zm-37-2.2q-0.1 0-0.1 0q-5.5-0.3-11.2-0.5c-1-0.1-1.8-0.9-1.7-2c0-1 0.9-1.8 1.9-1.7q5.7 0.2 11.1 0.5c1.1 0.1 1.9 0.9 1.8 2c0 0.9-0.9 1.7-1.8 1.7zm-37.1-1.6q-0.1 0-0.1 0l-11.1-0.4c-1-0.1-1.8-0.9-1.8-1.9c0-1.1 0.9-1.8 1.9-1.8l11.1 0.4c1.1 0 1.9 0.9 1.8 1.9c0 1-0.8 1.8-1.8 1.8zm-37.1-1.2q-0.1 0-0.1 0l-11.1-0.4c-1 0-1.8-0.8-1.8-1.9c0-1 0.7-1.7 1.9-1.8l11.1 0.3c1.1 0.1 1.9 0.9 1.8 2c0 1-0.8 1.8-1.8 1.8zm-37.1-1q-0.1 0-0.1 0l-11.1-0.3c-1 0-1.8-0.8-1.8-1.9c0-1 0.8-1.8 1.8-1.8q0 0 0.1 0l11.1 0.3c1 0 1.8 0.9 1.8 1.9c0 1-0.8 1.8-1.8 1.8zm-37.1-0.8q-0.1 0-0.1 0l-11.1-0.1c-1-0.1-1.9-0.9-1.8-1.9c0-1 0.8-1.9 1.8-1.9q0 0 0 0l11.2 0.2c1 0.1 1.8 0.9 1.8 1.9c0 1-0.8 1.8-1.8 1.8zm-493.8 0c-1 0-1.8-0.8-1.8-1.8c-0.1-1 0.8-1.9 1.8-1.9l11.1-0.1q0 0 0.1 0c1 0 1.8 0.8 1.8 1.8c0 1.1-0.8 1.9-1.8 1.9l-11.2 0.1q0 0 0 0zm37.1-0.4c-1 0-1.8-0.8-1.8-1.8c0-1 0.8-1.9 1.8-1.9l11.2-0.1q0 0 0 0c1 0 1.8 0.8 1.8 1.8c0.1 1.1-0.8 1.9-1.8 1.9l-11.1 0.1q0 0-0.1 0zm419.5-0.1q0 0 0 0l-11.1-0.2c-1 0-1.9-0.8-1.9-1.9c0.1-1 0.9-1.8 1.9-1.8q0 0 0 0l11.2 0.1c1 0.1 1.8 0.9 1.8 1.9c0 1-0.9 1.9-1.9 1.9zm-382.3-0.2c-1 0-1.9-0.9-1.9-1.9c0-1 0.8-1.8 1.9-1.9l11.1-0.1q0 0 0 0c1 0 1.9 0.9 1.9 1.9c0 1-0.8 1.9-1.9 1.9l-11.1 0.1q0 0 0 0zm345.2-0.3q0 0 0 0l-11.1-0.1c-1.1 0-1.9-0.8-1.9-1.9c0-1 0.9-1.8 1.9-1.8q0 0 0 0l11.1 0.1c1.1 0 1.9 0.9 1.9 1.9c0 1-0.9 1.8-1.9 1.8zm-308.1 0c-1 0-1.8-0.9-1.8-1.9c-0.1-1 0.8-1.8 1.8-1.9h11.1q0 0 0 0c1.1 0 1.9 0.8 1.9 1.8c0 1-0.8 1.9-1.8 1.9l-11.2 0.1q0 0 0 0zm271-0.3q0 0 0 0l-11.1-0.1c-1.1 0-1.9-0.8-1.9-1.8c0-1.1 0.8-1.9 1.9-1.9q0 0 0 0l11.1 0.1c1 0 1.9 0.8 1.9 1.9c0 1-0.9 1.8-1.9 1.8zm-233.9 0c-1 0-1.8-0.8-1.8-1.8c0-1.1 0.8-1.9 1.8-1.9l11.2-0.1q0 0 0 0c1 0 1.8 0.9 1.8 1.9c0 1-0.8 1.8-1.8 1.8l-11.2 0.1q0 0 0 0zm37.2-0.2c-1.1 0-1.9-0.8-1.9-1.8c0-1.1 0.8-1.9 1.9-1.9h11.1c1 0 1.9 0.8 1.9 1.8c0 1-0.9 1.9-1.9 1.9h-11.1zm159.6 0h-11.1c-1.1-0.1-1.9-0.9-1.9-1.9c0-1 0.8-1.9 1.9-1.9l11.1 0.1c1 0 1.9 0.8 1.8 1.8c0 1.1-0.8 1.9-1.8 1.9zm-122.5-0.1c-1 0-1.9-0.8-1.9-1.9c0-1 0.9-1.8 1.9-1.8h11.1c1-0.1 1.9 0.8 1.9 1.8c0 1-0.8 1.9-1.9 1.9h-11.1zm85.4 0q0 0 0 0h-11.2c-1 0-1.8-0.9-1.8-1.9c0-1 0.8-1.9 1.8-1.9l11.2 0.1c1 0 1.8 0.8 1.8 1.8c0 1-0.8 1.9-1.8 1.9zm-48.3-0.1c-1 0-1.8-0.8-1.8-1.8c0-1 0.8-1.9 1.8-1.9h11.1c1 0 1.9 0.9 1.9 1.9c0 1-0.8 1.8-1.8 1.8h-11.2z" />
				<path id="&lt;Path&gt;" class="s43" d="m1443.9 1786.1h-99c-13 0-23.9-9.6-25.4-22.4l-11.5-95.3c-1.8-15.2 10.1-28.5 25.5-28.5h118.9c15 0 26.8 12.8 25.5 27.7l-8.5 95.3c-1.2 13.1-12.3 23.2-25.5 23.2z" />
				<path id="&lt;Path&gt;" class="s44" d="m1436 1773.6h-79.2c-10.4 0-19.2-7.7-20.4-18l-9.2-76.3c-1.4-12.2 8.1-22.8 20.4-22.8h95.2c12.1 0 21.5 10.2 20.5 22.2l-6.8 76.3c-1 10.5-9.8 18.6-20.5 18.6z" />
			</g>
		</g>
	</g>
</svg>