<svg version="1.2" xmlns="http://www.w3.org/2000/svg" viewBox="0 0 621 582" width="621" height="582">
	<title>Ershad Rahi</title>
	<defs>
		<linearGradient id="g1" x1="468.7" y1="511.6" x2="525.7" y2="511.6" gradientUnits="userSpaceOnUse">
			<stop offset="0" stop-color="#e39a65"/>
			<stop offset="1" stop-color="#e95f8d"/>
		</linearGradient>
		<linearGradient id="g2" x1="93.4" y1="196.8" x2="189.8" y2="196.8" gradientUnits="userSpaceOnUse">
			<stop offset="0" stop-color="#e39a65"/>
			<stop offset="1" stop-color="#e95f8d"/>
		</linearGradient>
		<linearGradient id="g3" x1="28" y1="247.3" x2="546.9" y2="247.3" gradientUnits="userSpaceOnUse">
			<stop offset="0" stop-color="#e39a65"/>
			<stop offset="1" stop-color="#e95f8d"/>
		</linearGradient>
		<radialGradient id="g4" cx="315.2" cy="17.4" r="394.7" gradientUnits="userSpaceOnUse">
			<stop offset="0" stop-color="#e39a65"/>
			<stop offset=".5" stop-color="#a92ffb"/>
			<stop offset=".7" stop-color="#6507fa"/>
			<stop offset=".8" stop-color="#0d0c6f"/>
		</radialGradient>
		<radialGradient id="g5" cx="71.8" cy="336.1" r="434.2" gradientUnits="userSpaceOnUse">
			<stop offset="0" stop-color="#e39a65"/>
			<stop offset=".5" stop-color="#a92ffb"/>
			<stop offset=".7" stop-color="#6507fa"/>
			<stop offset=".7" stop-color="#0d0c6f"/>
		</radialGradient>
		<radialGradient id="g6" cx="112.7" cy="249.4" r="387.3" gradientUnits="userSpaceOnUse">
			<stop offset="0" stop-color="#e39a65"/>
			<stop offset=".5" stop-color="#a92ffb"/>
			<stop offset=".7" stop-color="#6507fa"/>
			<stop offset="1" stop-color="#3919bb"/>
		</radialGradient>
		<radialGradient id="g7" cx="209.9" cy="100.8" r="394.8" gradientUnits="userSpaceOnUse">
			<stop offset="0" stop-color="#e39a65"/>
			<stop offset=".5" stop-color="#a92ffb"/>
			<stop offset=".7" stop-color="#6507fa"/>
			<stop offset="1" stop-color="#3919bb"/>
		</radialGradient>
		<linearGradient id="g8" x1="253.3" y1="30.2" x2="569.7" y2="30.2" gradientUnits="userSpaceOnUse">
			<stop offset="0" stop-color="#3919bb"/>
			<stop offset="1" stop-color="#6507fa"/>
		</linearGradient>
		<radialGradient id="g9" cx="65.7" cy="16.6" r="614.9" gradientUnits="userSpaceOnUse">
			<stop offset="0" stop-color="#e39a65"/>
			<stop offset=".5" stop-color="#a92ffb"/>
			<stop offset=".7" stop-color="#6507fa"/>
			<stop offset="1" stop-color="#3919bb"/>
		</radialGradient>
	</defs>
	<style>
		.s0 { fill: url(#g1) } 
		.s1 { fill: url(#g2) } 
		.s2 { opacity: .3;fill: #000028 } 
		.s3 { fill: url(#g3) } 
		.s4 { fill: url(#g4) } 
		.s5 { fill: url(#g5) } 
		.s6 { fill: url(#g6) } 
		.s7 { fill: #ffffff } 
		.s8 { fill: #06033e } 
		.s9 { fill: url(#g7) } 
		.s10 { fill: url(#g8) } 
		.s11 { opacity: .4;fill: #06033e } 
		.s12 { opacity: .5;fill: #06033e } 
		.s13 { fill: url(#g9) } 
		.s14 { fill: #e8975b } 
		.s15 { fill: #f8359e } 
	</style>
	<g id="\321\353\356\351 1">
		<path id="&lt;Compound Path&gt;" fill-rule="evenodd" class="s0" d="m497.2 548.2c-2.1 0-4.1-0.5-5.9-1.5l-20.9-12.1c-1.1-0.6-1.7-1.7-1.7-2.9c0-1.2 0.6-2.3 1.7-2.9l20.9-12.1c3.6-2.1 8.2-2.1 11.8 0l20.9 12.1c1.1 0.6 1.7 1.7 1.7 2.9c0 1.2-0.6 2.3-1.7 2.9l-20.9 12.1c-1.8 1-3.8 1.5-5.9 1.5zm-4.8-3.5c3 1.7 6.6 1.7 9.6 0l20.9-12.1c0.4-0.3 0.5-0.7 0.5-0.9c0-0.2-0.1-0.6-0.5-0.9l-20.9-12.1c-3-1.7-6.6-1.7-9.6 0l-20.9 12.1c-0.4 0.3-0.5 0.7-0.5 0.9c0 0.2 0.1 0.6 0.5 0.9z" />
		<path id="&lt;Compound Path&gt;" fill-rule="evenodd" class="s1" d="m141.6 255.6c-3.4 0-6.8-0.9-9.8-2.6l-35.9-20.7c-1.6-0.9-2.5-2.5-2.5-4.3c0-1.8 0.9-3.4 2.5-4.3l35.9-20.8c6-3.5 13.5-3.5 19.6 0l35.9 20.8c1.6 0.9 2.5 2.5 2.5 4.3c0 1.8-0.9 3.4-2.5 4.3l-35.9 20.7c-3 1.7-6.4 2.6-9.8 2.6zm0-53c-3 0-6 0.8-8.7 2.3l-35.9 20.8c-0.8 0.5-1.3 1.3-1.3 2.3c0 0.9 0.5 1.8 1.3 2.3l35.9 20.7c5.4 3.1 12 3.1 17.3 0l36-20.7c0.8-0.5 1.3-1.4 1.3-2.3c0-1-0.5-1.8-1.3-2.3l-36-20.8c-2.6-1.5-5.6-2.3-8.6-2.3z" />
		<g id="&lt;Group&gt;">
			<path id="&lt;Path&gt;" class="s2" d="m326.5 526.8l-256.8-148.2c-3.8-2.2-3.3-6 1-8.5l164.8-95.1c4.4-2.5 10.9-2.8 14.7-0.6l256.8 148.2c3.7 2.2 3.3 6-1.1 8.5l-164.8 95.1c-4.3 2.5-10.9 2.8-14.6 0.6z" />
			<path id="&lt;Compound Path&gt;" fill-rule="evenodd" class="s3" d="m332.4 553.1c-2.9 0-5.7-0.6-7.9-1.8q0 0 0 0l-293.1-169.2c-2.2-1.3-3.4-3.2-3.4-5.2c0-2.4 1.7-4.7 4.6-6.5l199.8-117c5.4-3.1 13.2-3.4 17.9-0.7l293.1 169.2c2.2 1.3 3.5 3.1 3.5 5.2c0 2.4-1.7 4.7-4.7 6.4l-199.8 117.1c-2.9 1.6-6.6 2.5-10 2.5zm-6.7-3.8c4 2.2 10.9 1.9 15.5-0.7l199.8-117.1c2.3-1.3 3.6-2.9 3.6-4.4c0-1.5-1.3-2.6-2.4-3.2l-293.1-169.2c-3.9-2.3-10.9-2-15.5 0.7l-199.8 117c-2.3 1.3-3.5 2.9-3.5 4.5c0 1.5 1.2 2.6 2.3 3.2l293.1 169.2z" />
			<path id="&lt;Path&gt;" class="s4" d="m579.9 186.7l-57.8 187.8c-0.8 2.4-2.3 4.1-4.1 4.8l-4.6 1.6l0.7-1.4q-1-0.2-1.9-0.7l-255.8-147.7c-4.1-2.3-6.2-8-4.7-12.6l57.8-187.8q0.6-1.8 1.6-3l-1.7-0.3l4.8-1.7q0 0 0 0c1.6-0.5 3.4-0.3 5.2 0.7l255.8 147.7c4.1 2.3 6.2 8 4.7 12.6z" />
			<path id="&lt;Path&gt;" class="s5" d="m509.5 384.1l-1.6 7.5c-0.3 1.4-1.5 2.8-3.5 4l-163.7 94.5c-4.3 2.4-10.8 2.7-14.5 0.6l-255-147.2c-1.4-0.9-2.3-1.9-2.5-3.1l-1.5-7.6l5.5 2.1l163.2-94.3c4.3-2.4 10.8-2.7 14.5-0.6l252.7 145.9l-0.1-0.1z" />
			<path id="&lt;Path&gt;" class="s6" d="m326.5 484l-256.8-148.3c-3.8-2.1-3.3-5.9 1-8.4l164.8-95.2c4.4-2.5 10.9-2.7 14.7-0.6l256.8 148.3c3.7 2.1 3.3 5.9-1.1 8.4l-164.8 95.1c-4.3 2.5-10.9 2.8-14.6 0.7z" />
			<path id="&lt;Path&gt;" class="s7" d="m509.3 382.4c0.6 2-0.5 4.2-3.4 5.8l-164.8 95.1c-4.3 2.5-10.9 2.8-14.6 0.7l-256.8-148.3c-2.2-1.2-2.9-2.9-2.4-4.7c0.3 1 1.1 2 2.4 2.7l256.8 148.3c3.7 2.1 10.3 1.8 14.6-0.7l164.8-95.1c1.9-1.1 3-2.4 3.4-3.8z" />
			<g id="&lt;Group&gt;" style="opacity: .4">
				<path id="&lt;Path&gt;" class="s8" d="m192.2 311.7l-8.7-5.1c-0.7-0.4-0.6-1.1 0.2-1.5l10.2-5.9c0.8-0.5 2-0.5 2.7-0.1l8.7 5c0.7 0.4 0.6 1.1-0.2 1.5l-10.2 5.9c-0.8 0.5-2 0.6-2.7 0.2z" />
				<path id="&lt;Path&gt;" class="s8" d="m205.6 319.4l-8.7-5c-0.7-0.4-0.6-1.1 0.2-1.6l10.2-5.9c0.8-0.5 2-0.5 2.7-0.1l8.7 5c0.7 0.4 0.6 1.1-0.2 1.6l-10.2 5.9c-0.8 0.4-2 0.5-2.7 0.1z" />
				<path id="&lt;Path&gt;" class="s8" d="m218.9 327.1l-8.6-5c-0.7-0.4-0.6-1.1 0.2-1.6l10.2-5.9c0.8-0.4 2-0.5 2.7-0.1l8.7 5c0.7 0.4 0.6 1.1-0.2 1.6l-10.2 5.9c-0.8 0.5-2.1 0.5-2.8 0.1z" />
				<path id="&lt;Path&gt;" class="s8" d="m237.5 320.7l-8.7-5c-0.7-0.4-0.6-1.1 0.2-1.5l8.6-5c0.8-0.5 2-0.5 2.7-0.1l8.7 5c0.7 0.4 0.6 1.1-0.2 1.6l-8.6 4.9c-0.8 0.5-2 0.5-2.7 0.1z" />
				<path id="&lt;Path&gt;" class="s8" d="m250.9 328.5l-8.7-5c-0.7-0.4-0.6-1.2 0.2-1.6l8.6-5c0.8-0.4 2-0.5 2.7-0.1l8.7 5c0.7 0.4 0.6 1.1-0.2 1.6l-8.6 4.9c-0.8 0.5-2 0.6-2.7 0.2z" />
				<path id="&lt;Path&gt;" class="s8" d="m264.3 336.2l-8.7-5c-0.7-0.4-0.6-1.1 0.2-1.6l8.6-4.9c0.8-0.5 2-0.6 2.7-0.2l8.7 5c0.7 0.4 0.6 1.2-0.2 1.6l-8.6 5c-0.8 0.4-2.1 0.5-2.7 0.1z" />
				<path id="&lt;Path&gt;" class="s8" d="m277.6 343.9l-8.6-5c-0.7-0.4-0.6-1.1 0.2-1.6l8.6-4.9c0.8-0.5 2-0.5 2.7-0.1l8.6 5c0.7 0.4 0.7 1.1-0.1 1.5l-8.6 5c-0.8 0.5-2.1 0.5-2.8 0.1z" />
				<path id="&lt;Path&gt;" class="s8" d="m291 351.6l-8.6-5c-0.7-0.4-0.6-1.1 0.2-1.5l8.5-5c0.9-0.5 2.1-0.5 2.8-0.1l8.6 5c0.7 0.4 0.6 1.1-0.2 1.6l-8.5 4.9c-0.9 0.5-2.1 0.5-2.8 0.1z" />
				<path id="&lt;Path&gt;" class="s8" d="m304.4 359.4l-8.6-5c-0.7-0.4-0.7-1.1 0.1-1.6l8.6-5c0.8-0.4 2.1-0.5 2.8-0.1l8.6 5c0.7 0.4 0.6 1.1-0.2 1.6l-8.6 5c-0.8 0.4-2 0.5-2.7 0.1z" />
				<path id="&lt;Path&gt;" class="s8" d="m317.8 367.1l-8.7-5c-0.7-0.4-0.6-1.1 0.2-1.6l8.6-4.9c0.8-0.5 2.1-0.5 2.7-0.1l8.7 5c0.7 0.4 0.6 1.1-0.2 1.5l-8.6 5c-0.8 0.5-2 0.5-2.7 0.1z" />
				<path id="&lt;Path&gt;" class="s8" d="m331.2 374.8l-8.7-5c-0.7-0.4-0.6-1.1 0.2-1.5l8.6-5c0.8-0.5 2-0.5 2.7-0.1l8.7 5c0.7 0.4 0.6 1.1-0.2 1.6l-8.6 4.9c-0.8 0.5-2 0.5-2.7 0.1z" />
				<path id="&lt;Path&gt;" class="s8" d="m344.6 382.6l-8.7-5c-0.7-0.4-0.6-1.1 0.2-1.6l8.6-5c0.8-0.4 2-0.5 2.7-0.1l8.7 5c0.7 0.4 0.6 1.1-0.2 1.6l-8.6 4.9c-0.8 0.5-2 0.6-2.7 0.2z" />
				<path id="&lt;Path&gt;" class="s8" d="m358 390.3l-8.7-5c-0.7-0.4-0.6-1.1 0.2-1.6l8.6-4.9c0.8-0.5 2-0.6 2.7-0.2l8.7 5.1c0.7 0.4 0.6 1.1-0.2 1.5l-8.6 5c-0.8 0.4-2 0.5-2.7 0.1z" />
				<path id="&lt;Path&gt;" class="s8" d="m257.2 317.1l-8.7-5c-0.7-0.4-0.6-1.1 0.2-1.6l8.6-5c0.8-0.4 2-0.5 2.7-0.1l8.7 5c0.7 0.4 0.6 1.1-0.2 1.6l-8.6 5c-0.8 0.4-2 0.5-2.7 0.1z" />
				<path id="&lt;Path&gt;" class="s8" d="m243.6 309.2l-8.7-5c-0.7-0.4-0.6-1.1 0.2-1.5l8.6-5c0.8-0.5 2-0.5 2.7-0.1l8.7 5c0.7 0.4 0.6 1.1-0.2 1.6l-8.6 4.9c-0.8 0.5-2 0.5-2.7 0.1z" />
				<path id="&lt;Path&gt;" class="s8" d="m230 301.4l-18.7-10.8c-0.7-0.4-0.6-1.1 0.2-1.6l8.6-4.9c0.8-0.5 2-0.6 2.7-0.2l18.7 10.8c0.7 0.4 0.6 1.1-0.2 1.6l-8.6 5c-0.8 0.4-2 0.5-2.7 0.1z" />
				<path id="&lt;Path&gt;" class="s8" d="m239.5 291.8l-15.1-8.7c-0.7-0.4-0.7-1.1 0.1-1.6l8.6-5c0.8-0.4 2.1-0.5 2.8-0.1l15.1 8.8c0.7 0.4 0.6 1.1-0.2 1.5l-8.6 5c-0.8 0.5-2 0.5-2.7 0.1z" />
				<path id="&lt;Path&gt;" class="s8" d="m270.6 324.8l-8.7-5c-0.7-0.4-0.6-1.1 0.2-1.6l8.6-4.9c0.8-0.5 2-0.5 2.7-0.1l8.7 5c0.7 0.4 0.6 1.1-0.2 1.5l-8.6 5c-0.8 0.4-2 0.5-2.7 0.1z" />
				<path id="&lt;Path&gt;" class="s8" d="m284 332.5l-8.7-5c-0.7-0.4-0.6-1.1 0.2-1.5l8.6-5c0.8-0.5 2-0.5 2.7-0.1l8.7 5c0.7 0.4 0.6 1.1-0.2 1.6l-8.6 4.9c-0.8 0.5-2 0.5-2.7 0.1z" />
				<path id="&lt;Path&gt;" class="s8" d="m297.4 340.3l-8.7-5c-0.7-0.5-0.6-1.2 0.2-1.6l8.6-5c0.8-0.4 2-0.5 2.7-0.1l8.7 5c0.7 0.4 0.6 1.1-0.2 1.6l-8.6 4.9c-0.8 0.5-2 0.6-2.7 0.2z" />
				<path id="&lt;Path&gt;" class="s8" d="m310.8 348l-8.7-5c-0.7-0.4-0.6-1.1 0.2-1.6l8.6-4.9c0.8-0.5 2-0.6 2.7-0.2l8.7 5c0.7 0.4 0.6 1.2-0.2 1.6l-8.6 5c-0.8 0.4-2 0.5-2.7 0.1z" />
				<path id="&lt;Path&gt;" class="s8" d="m324.2 355.7l-8.7-5c-0.7-0.4-0.6-1.1 0.2-1.6l8.6-4.9c0.8-0.5 2-0.5 2.7-0.1l8.7 5c0.7 0.4 0.6 1.1-0.2 1.5l-8.6 5c-0.8 0.5-2 0.5-2.7 0.1z" />
				<path id="&lt;Path&gt;" class="s8" d="m337.5 363.4l-8.6-5c-0.7-0.4-0.6-1.1 0.2-1.5l8.6-5c0.8-0.5 2-0.5 2.7-0.1l8.7 5c0.6 0.4 0.6 1.1-0.2 1.6l-8.6 4.9c-0.8 0.5-2.1 0.5-2.8 0.1z" />
				<path id="&lt;Path&gt;" class="s8" d="m350.9 371.2l-8.6-5c-0.7-0.4-0.6-1.1 0.2-1.6l8.6-5c0.8-0.4 2-0.5 2.7-0.1l8.6 5c0.7 0.4 0.7 1.1-0.2 1.6l-8.5 5c-0.8 0.4-2.1 0.5-2.8 0.1z" />
				<path id="&lt;Path&gt;" class="s8" d="m364.3 378.9l-8.6-5c-0.7-0.4-0.6-1.1 0.2-1.6l8.5-4.9c0.9-0.5 2.1-0.5 2.8-0.1l8.6 5c0.7 0.4 0.6 1.1-0.2 1.5l-8.6 5c-0.8 0.5-2 0.5-2.7 0.1z" />
				<path id="&lt;Path&gt;" class="s8" d="m377.7 386.6l-8.6-5c-0.7-0.4-0.7-1.1 0.1-1.5l8.6-5c0.8-0.5 2.1-0.5 2.8-0.1l8.6 5c0.7 0.4 0.6 1.1-0.2 1.6l-8.6 4.9c-0.8 0.5-2 0.5-2.7 0.1z" />
				<path id="&lt;Path&gt;" class="s8" d="m401.5 400.4l-18.9-10.9c-0.7-0.5-0.6-1.2 0.2-1.6l8.6-5c0.8-0.4 2-0.5 2.7-0.1l18.9 10.9c0.7 0.4 0.6 1.1-0.2 1.6l-8.6 5c-0.8 0.4-2 0.5-2.7 0.1z" />
				<path id="&lt;Path&gt;" class="s8" d="m427.6 385.3l-16-9.2c-0.7-0.4-0.6-1.1 0.2-1.6l8.6-4.9c0.8-0.5 2-0.5 2.7-0.1l16 9.2c0.7 0.4 0.6 1.1-0.2 1.6l-8.6 4.9c-0.8 0.5-2 0.5-2.7 0.1z" />
				<path id="&lt;Path&gt;" class="s8" d="m294 323.3l-8.6-5c-0.7-0.4-0.6-1.1 0.2-1.6l8.6-4.9c0.8-0.5 2-0.6 2.7-0.2l8.6 5c0.7 0.4 0.7 1.2-0.1 1.6l-8.6 5c-0.8 0.4-2.1 0.5-2.8 0.1z" />
				<path id="&lt;Path&gt;" class="s8" d="m280.3 315.4l-8.7-5c-0.6-0.4-0.6-1.1 0.2-1.6l8.6-5c0.8-0.4 2.1-0.5 2.7-0.1l8.7 5c0.7 0.4 0.6 1.1-0.2 1.6l-8.6 5c-0.8 0.4-2 0.5-2.7 0.1z" />
				<path id="&lt;Path&gt;" class="s8" d="m266.6 307.4l-8.7-5c-0.7-0.4-0.6-1.1 0.2-1.5l8.6-5c0.8-0.5 2-0.5 2.7-0.1l8.7 5c0.7 0.4 0.6 1.1-0.2 1.6l-8.6 4.9c-0.8 0.5-2 0.5-2.7 0.1z" />
				<path id="&lt;Path&gt;" class="s8" d="m252.9 299.5l-8.7-5c-0.7-0.4-0.6-1.1 0.2-1.6l8.6-4.9c0.8-0.5 2-0.5 2.7-0.1l8.7 5c0.7 0.4 0.6 1.1-0.2 1.6l-8.6 4.9c-0.8 0.5-2 0.5-2.7 0.1z" />
				<path id="&lt;Path&gt;" class="s8" d="m307.4 331l-8.6-5c-0.7-0.4-0.6-1.1 0.2-1.6l8.5-4.9c0.9-0.5 2.1-0.5 2.8-0.1l8.6 5c0.7 0.4 0.6 1.1-0.2 1.5l-8.6 5c-0.8 0.5-2 0.5-2.7 0.1z" />
				<path id="&lt;Path&gt;" class="s8" d="m320.8 338.7l-8.6-5c-0.7-0.4-0.7-1.1 0.1-1.5l8.6-5c0.8-0.5 2.1-0.5 2.8-0.1l8.6 5c0.7 0.4 0.6 1.1-0.2 1.6l-8.6 4.9c-0.8 0.5-2 0.5-2.7 0.1z" />
				<path id="&lt;Path&gt;" class="s8" d="m334.2 346.5l-8.7-5c-0.7-0.4-0.6-1.1 0.2-1.6l8.6-5c0.8-0.4 2.1-0.5 2.7-0.1l8.7 5c0.7 0.4 0.6 1.1-0.2 1.6l-8.6 5c-0.8 0.4-2 0.5-2.7 0.1z" />
				<path id="&lt;Path&gt;" class="s8" d="m347.6 354.2l-8.7-5c-0.7-0.4-0.6-1.1 0.2-1.6l8.6-4.9c0.8-0.5 2-0.5 2.7-0.1l8.7 5c0.7 0.4 0.6 1.1-0.2 1.5l-8.6 5c-0.8 0.5-2 0.5-2.7 0.1z" />
				<path id="&lt;Path&gt;" class="s8" d="m361 361.9l-8.7-5c-0.7-0.4-0.6-1.1 0.2-1.5l8.6-5c0.8-0.5 2-0.5 2.7-0.1l8.7 5c0.7 0.4 0.6 1.1-0.2 1.6l-8.6 4.9c-0.8 0.5-2 0.5-2.7 0.1z" />
				<path id="&lt;Path&gt;" class="s8" d="m374.4 369.7l-8.7-5c-0.7-0.4-0.6-1.1 0.2-1.6l8.6-5c0.8-0.4 2-0.5 2.7-0.1l8.7 5c0.7 0.4 0.6 1.1-0.2 1.6l-8.6 4.9c-0.8 0.5-2 0.6-2.7 0.2z" />
				<path id="&lt;Path&gt;" class="s8" d="m387.8 377.4l-8.7-5c-0.7-0.4-0.6-1.1 0.2-1.6l8.6-4.9c0.8-0.5 2-0.6 2.7-0.2l8.7 5.1c0.7 0.4 0.6 1.1-0.2 1.5l-8.6 5c-0.8 0.4-2 0.5-2.7 0.1z" />
				<path id="&lt;Path&gt;" class="s8" d="m401.2 385.1l-8.7-5c-0.7-0.4-0.6-1.1 0.2-1.6l8.6-4.9c0.8-0.5 2-0.5 2.7-0.1l8.7 5c0.7 0.4 0.6 1.1-0.2 1.5l-8.6 5c-0.8 0.5-2 0.5-2.7 0.1z" />
				<path id="&lt;Path&gt;" class="s8" d="m414.6 392.8l-8.7-5c-0.7-0.4-0.6-1.1 0.2-1.5l8.6-5c0.8-0.4 2-0.5 2.7-0.1l8.7 5c0.7 0.4 0.6 1.1-0.2 1.6l-8.6 4.9c-0.8 0.5-2 0.5-2.7 0.1z" />
				<path id="&lt;Path&gt;" class="s8" d="m287 304.2l-8.7-5c-0.7-0.4-0.6-1.1 0.2-1.6l8.6-5c0.8-0.4 2-0.5 2.7-0.1l8.7 5c0.7 0.4 0.6 1.1-0.2 1.6l-8.6 5c-0.8 0.4-2 0.5-2.7 0.1z" />
				<path id="&lt;Path&gt;" class="s8" d="m273.7 296.5l-8.7-5c-0.7-0.4-0.6-1.1 0.2-1.6l8.6-5c0.8-0.4 2-0.5 2.7-0.1l8.7 5c0.7 0.4 0.6 1.1-0.2 1.6l-8.6 5c-0.8 0.4-2 0.5-2.7 0.1z" />
				<path id="&lt;Path&gt;" class="s8" d="m260.3 288.8l-8.6-5c-0.7-0.4-0.6-1.1 0.2-1.6l8.6-4.9c0.8-0.5 2-0.6 2.7-0.2l8.6 5c0.7 0.5 0.7 1.2-0.2 1.6l-8.5 5c-0.8 0.4-2.1 0.5-2.8 0.1z" />
				<path id="&lt;Path&gt;" class="s8" d="m247 281.1l-8.7-5c-0.7-0.4-0.6-1.1 0.2-1.6l8.6-4.9c0.8-0.5 2.1-0.5 2.7-0.1l8.7 5c0.7 0.4 0.6 1.1-0.2 1.5l-8.6 5c-0.8 0.4-2 0.5-2.7 0.1z" />
				<path id="&lt;Path&gt;" class="s8" d="m260.7 273.2l-8.7-5c-0.6-0.4-0.6-1.1 0.2-1.6l2.9-1.6c0.8-0.5 2-0.5 2.7-0.1l8.7 5c0.7 0.4 0.6 1.1-0.2 1.5l-2.9 1.7c-0.8 0.4-2 0.5-2.7 0.1z" />
				<path id="&lt;Path&gt;" class="s8" d="m278.1 283.2l-8.7-5c-0.7-0.4-0.6-1.1 0.2-1.5l2.9-1.7c0.8-0.5 2-0.5 2.7-0.1l8.7 5c0.7 0.4 0.6 1.1-0.2 1.6l-2.9 1.6c-0.8 0.5-2 0.5-2.7 0.1z" />
				<path id="&lt;Path&gt;" class="s8" d="m291.4 290.9l-8.7-5c-0.7-0.4-0.6-1.1 0.2-1.6l2.8-1.6c0.8-0.5 2.1-0.5 2.8-0.1l8.6 5c0.7 0.4 0.6 1.1-0.2 1.5l-2.8 1.7c-0.8 0.4-2 0.5-2.7 0.1z" />
				<path id="&lt;Path&gt;" class="s8" d="m304.6 298.5l-8.6-5c-0.7-0.4-0.6-1.1 0.2-1.5l2.8-1.7c0.8-0.4 2-0.5 2.7-0.1l8.7 5c0.7 0.4 0.6 1.1-0.2 1.6l-2.8 1.6c-0.8 0.5-2.1 0.5-2.8 0.1z" />
				<path id="&lt;Path&gt;" class="s8" d="m317.9 306.2l-8.7-5c-0.7-0.4-0.6-1.1 0.2-1.6l2.9-1.6c0.8-0.5 2-0.5 2.7-0.1l8.7 5c0.7 0.4 0.6 1.1-0.2 1.5l-2.9 1.7c-0.8 0.5-2 0.5-2.7 0.1z" />
				<path id="&lt;Path&gt;" class="s8" d="m392 349l-8.7-5c-0.7-0.4-0.6-1.2 0.2-1.6l2.9-1.7c0.8-0.4 2-0.5 2.7-0.1l8.6 5c0.7 0.4 0.7 1.1-0.1 1.6l-2.9 1.6c-0.8 0.5-2 0.6-2.7 0.2z" />
				<path id="&lt;Path&gt;" class="s8" d="m405.3 356.6l-8.7-5c-0.7-0.4-0.6-1.1 0.2-1.6l2.8-1.6c0.8-0.5 2-0.5 2.7-0.1l8.7 5c0.7 0.4 0.6 1.1-0.2 1.6l-2.8 1.6c-0.8 0.5-2 0.5-2.7 0.1z" />
				<path id="&lt;Path&gt;" class="s8" d="m418.5 364.3l-8.6-5c-0.7-0.4-0.6-1.1 0.2-1.6l2.8-1.6c0.8-0.5 2-0.6 2.7-0.2l8.7 5.1c0.7 0.4 0.6 1.1-0.2 1.5l-2.9 1.7c-0.8 0.4-2 0.5-2.7 0.1z" />
				<path id="&lt;Path&gt;" class="s8" d="m431.8 371.9l-8.7-5c-0.7-0.4-0.6-1.1 0.2-1.5l2.9-1.7c0.8-0.4 2-0.5 2.7-0.1l8.7 5c0.7 0.4 0.6 1.1-0.2 1.6l-2.9 1.6c-0.8 0.5-2 0.5-2.7 0.1z" />
				<path id="&lt;Path&gt;" class="s8" d="m300.4 311.9l-8.7-5c-0.7-0.4-0.6-1.1 0.2-1.6l8.6-4.9c0.8-0.5 2-0.5 2.7-0.1l8.7 5c0.7 0.4 0.6 1.1-0.2 1.5l-8.6 5c-0.8 0.4-2 0.5-2.7 0.1z" />
				<path id="&lt;Path&gt;" class="s8" d="m313.8 319.6l-8.7-5c-0.7-0.4-0.6-1.1 0.2-1.5l8.6-5c0.8-0.5 2-0.5 2.7-0.1l8.7 5c0.7 0.4 0.6 1.1-0.2 1.6l-8.6 4.9c-0.8 0.5-2 0.5-2.7 0.1z" />
				<path id="&lt;Path&gt;" class="s8" d="m327.2 327.4l-8.7-5c-0.7-0.5-0.6-1.2 0.2-1.6l8.6-5c0.8-0.4 2-0.5 2.7-0.1l8.7 5c0.7 0.4 0.6 1.1-0.2 1.6l-8.6 4.9c-0.8 0.5-2 0.6-2.7 0.2z" />
				<path id="&lt;Path&gt;" class="s8" d="m340.6 335.1l-8.7-5c-0.7-0.4-0.6-1.1 0.2-1.6l8.6-4.9c0.8-0.5 2-0.6 2.7-0.2l8.7 5c0.7 0.4 0.6 1.1-0.2 1.6l-8.6 5c-0.8 0.4-2 0.5-2.7 0.1z" />
				<path id="&lt;Path&gt;" class="s8" d="m353.9 342.8l-8.6-5c-0.7-0.4-0.6-1.1 0.2-1.6l8.6-4.9c0.8-0.5 2-0.5 2.7-0.1l8.7 5c0.6 0.4 0.6 1.1-0.2 1.5l-8.6 5c-0.8 0.5-2.1 0.5-2.8 0.1z" />
				<path id="&lt;Path&gt;" class="s8" d="m367.3 350.5l-8.6-5c-0.7-0.4-0.6-1.1 0.2-1.5l8.6-5c0.8-0.5 2-0.5 2.7-0.1l8.6 5c0.7 0.4 0.7 1.1-0.2 1.6l-8.5 4.9c-0.8 0.5-2.1 0.5-2.8 0.1z" />
				<path id="&lt;Path&gt;" class="s8" d="m380.7 358.3l-8.6-5c-0.7-0.4-0.7-1.1 0.2-1.6l8.5-5c0.8-0.4 2.1-0.5 2.8-0.1l8.6 5c0.7 0.4 0.6 1.1-0.2 1.6l-8.6 5c-0.8 0.4-2 0.5-2.7 0.1z" />
				<path id="&lt;Path&gt;" class="s8" d="m394.1 366l-8.6-5c-0.7-0.4-0.7-1.1 0.1-1.6l8.6-4.9c0.8-0.5 2.1-0.5 2.8-0.1l8.6 5c0.7 0.4 0.6 1.1-0.2 1.5l-8.6 5c-0.8 0.5-2 0.5-2.7 0.1z" />
				<path id="&lt;Path&gt;" class="s8" d="m407.5 373.7l-8.7-5c-0.7-0.4-0.6-1.1 0.2-1.5l8.6-5c0.8-0.5 2-0.5 2.7-0.1l8.7 5c0.7 0.4 0.6 1.1-0.2 1.6l-8.6 4.9c-0.8 0.5-2 0.5-2.7 0.1z" />
				<path id="&lt;Path&gt;" class="s8" d="m223.8 312.9l-25.5-14.8c-0.7-0.4-0.6-1.1 0.2-1.6l8.6-4.9c0.8-0.5 2-0.5 2.7-0.1l25.5 14.7c0.7 0.4 0.6 1.1-0.2 1.6l-8.6 4.9c-0.8 0.5-2 0.6-2.7 0.2z" />
				<path id="&lt;Path&gt;" class="s8" d="m388.3 407.8l-25.5-14.7c-0.7-0.4-0.6-1.1 0.2-1.6l8.6-5c0.8-0.4 2-0.5 2.7-0.1l25.5 14.8c0.7 0.4 0.6 1.1-0.2 1.5l-8.5 5c-0.9 0.5-2.1 0.5-2.8 0.1z" />
				<path id="&lt;Path&gt;" class="s8" d="m334.8 394l-8.7-5c-0.7-0.4-0.6-1.1 0.2-1.6l10.2-5.9c0.8-0.5 2.1-0.5 2.8-0.1l8.6 5c0.7 0.4 0.6 1.1-0.2 1.5l-10.2 6c-0.8 0.4-2 0.5-2.7 0.1z" />
				<path id="&lt;Path&gt;" class="s8" d="m237.5 337.8l-13.8-8c-0.7-0.4-0.6-1.1 0.2-1.5l10.2-5.9c0.8-0.5 2-0.6 2.7-0.2l13.9 8.1c0.7 0.4 0.6 1.1-0.2 1.5l-10.2 5.9c-0.9 0.5-2.1 0.5-2.8 0.1z" />
				<path id="&lt;Path&gt;" class="s8" d="m321.9 386.5l-13.9-8c-0.7-0.4-0.6-1.1 0.2-1.6l10.2-5.9c0.8-0.4 2.1-0.5 2.8-0.1l13.8 8c0.7 0.4 0.6 1.1-0.2 1.6l-10.2 5.9c-0.8 0.5-2 0.5-2.7 0.1z" />
				<path id="&lt;Path&gt;" class="s8" d="m256.9 349l-13.9-8c-0.7-0.4-0.6-1.1 0.2-1.6l10.2-5.9c0.8-0.5 2-0.5 2.7-0.1l13.9 8c0.7 0.4 0.6 1.1-0.2 1.6l-10.2 5.9c-0.8 0.4-2 0.5-2.7 0.1z" />
				<path id="&lt;Path&gt;" class="s8" d="m256.2 333.5l60.3 34.8c0.8 0.4 0.8 1.1 0 1.5l-10.4 6c-0.8 0.5-2 0.5-2.7 0l-60.3-34.8z" />
				<path id="&lt;Path&gt;" class="s8" d="m372.2 408l9.7 5.6c0.5 0.3 0.5 0.9-0.2 1.2l-4.2 2.5c-0.6 0.3-1.6 0.4-2.2 0.1l-9.7-5.6c-0.5-0.4-0.5-0.9 0.2-1.3l4.2-2.4c0.6-0.4 1.6-0.4 2.2-0.1z" />
				<path id="&lt;Path&gt;" class="s8" d="m358.7 400.2l9.7 5.6c0.5 0.3 0.5 0.9-0.2 1.2l-4.2 2.5c-0.6 0.3-1.6 0.4-2.2 0.1l-9.7-5.6c-0.5-0.3-0.5-0.9 0.2-1.3l4.2-2.4c0.6-0.4 1.6-0.4 2.2-0.1z" />
				<path id="&lt;Path&gt;" class="s8" d="m345.3 392.5l9.7 5.5c0.5 0.4 0.5 0.9-0.2 1.3l-4.2 2.4c-0.6 0.4-1.6 0.5-2.2 0.1l-9.7-5.5c-0.5-0.4-0.5-1 0.2-1.3l4.2-2.4c0.6-0.4 1.6-0.5 2.2-0.1z" />
				<path id="&lt;Path&gt;" class="s8" d="m366.1 395.9l9.7 5.6c0.5 0.3 0.5 0.9-0.2 1.3l-4.2 2.4c-0.6 0.4-1.6 0.4-2.2 0.1l-9.7-5.6c-0.5-0.3-0.5-0.9 0.2-1.3l4.2-2.4c0.6-0.4 1.6-0.4 2.2-0.1z" />
			</g>
			<g id="&lt;Group&gt;" style="opacity: .4">
				<path id="&lt;Path&gt;" class="s8" d="m192.2 311.7l-8.7-5.1c-0.7-0.4-0.6-1.1 0.2-1.5l10.2-5.9c0.8-0.5 2-0.5 2.7-0.1l8.7 5c0.7 0.4 0.6 1.1-0.2 1.5l-10.2 5.9c-0.8 0.5-2 0.6-2.7 0.2z" />
				<path id="&lt;Path&gt;" class="s8" d="m205.6 319.4l-8.7-5c-0.7-0.4-0.6-1.1 0.2-1.6l10.2-5.9c0.8-0.5 2-0.5 2.7-0.1l8.7 5c0.7 0.4 0.6 1.1-0.2 1.6l-10.2 5.9c-0.8 0.4-2 0.5-2.7 0.1z" />
				<path id="&lt;Path&gt;" class="s8" d="m218.9 327.1l-8.6-5c-0.7-0.4-0.6-1.1 0.2-1.6l10.2-5.9c0.8-0.4 2-0.5 2.7-0.1l8.7 5c0.7 0.4 0.6 1.1-0.2 1.6l-10.2 5.9c-0.8 0.5-2.1 0.5-2.8 0.1z" />
				<path id="&lt;Path&gt;" class="s8" d="m237.5 320.7l-8.7-5c-0.7-0.4-0.6-1.1 0.2-1.5l8.6-5c0.8-0.5 2-0.5 2.7-0.1l8.7 5c0.7 0.4 0.6 1.1-0.2 1.6l-8.6 4.9c-0.8 0.5-2 0.5-2.7 0.1z" />
				<path id="&lt;Path&gt;" class="s8" d="m250.9 328.5l-8.7-5c-0.7-0.4-0.6-1.2 0.2-1.6l8.6-5c0.8-0.4 2-0.5 2.7-0.1l8.7 5c0.7 0.4 0.6 1.1-0.2 1.6l-8.6 4.9c-0.8 0.5-2 0.6-2.7 0.2z" />
				<path id="&lt;Path&gt;" class="s8" d="m264.3 336.2l-8.7-5c-0.7-0.4-0.6-1.1 0.2-1.6l8.6-4.9c0.8-0.5 2-0.6 2.7-0.2l8.7 5c0.7 0.4 0.6 1.2-0.2 1.6l-8.6 5c-0.8 0.4-2.1 0.5-2.7 0.1z" />
				<path id="&lt;Path&gt;" class="s8" d="m277.6 343.9l-8.6-5c-0.7-0.4-0.6-1.1 0.2-1.6l8.6-4.9c0.8-0.5 2-0.5 2.7-0.1l8.6 5c0.7 0.4 0.7 1.1-0.1 1.5l-8.6 5c-0.8 0.5-2.1 0.5-2.8 0.1z" />
				<path id="&lt;Path&gt;" class="s8" d="m291 351.6l-8.6-5c-0.7-0.4-0.6-1.1 0.2-1.5l8.5-5c0.9-0.5 2.1-0.5 2.8-0.1l8.6 5c0.7 0.4 0.6 1.1-0.2 1.6l-8.5 4.9c-0.9 0.5-2.1 0.5-2.8 0.1z" />
				<path id="&lt;Path&gt;" class="s8" d="m304.4 359.4l-8.6-5c-0.7-0.4-0.7-1.1 0.1-1.6l8.6-5c0.8-0.4 2.1-0.5 2.8-0.1l8.6 5c0.7 0.4 0.6 1.1-0.2 1.6l-8.6 5c-0.8 0.4-2 0.5-2.7 0.1z" />
				<path id="&lt;Path&gt;" class="s8" d="m317.8 367.1l-8.7-5c-0.7-0.4-0.6-1.1 0.2-1.6l8.6-4.9c0.8-0.5 2.1-0.5 2.7-0.1l8.7 5c0.7 0.4 0.6 1.1-0.2 1.5l-8.6 5c-0.8 0.5-2 0.5-2.7 0.1z" />
				<path id="&lt;Path&gt;" class="s8" d="m331.2 374.8l-8.7-5c-0.7-0.4-0.6-1.1 0.2-1.5l8.6-5c0.8-0.5 2-0.5 2.7-0.1l8.7 5c0.7 0.4 0.6 1.1-0.2 1.6l-8.6 4.9c-0.8 0.5-2 0.5-2.7 0.1z" />
				<path id="&lt;Path&gt;" class="s8" d="m344.6 382.6l-8.7-5c-0.7-0.4-0.6-1.1 0.2-1.6l8.6-5c0.8-0.4 2-0.5 2.7-0.1l8.7 5c0.7 0.4 0.6 1.1-0.2 1.6l-8.6 4.9c-0.8 0.5-2 0.6-2.7 0.2z" />
				<path id="&lt;Path&gt;" class="s8" d="m358 390.3l-8.7-5c-0.7-0.4-0.6-1.1 0.2-1.6l8.6-4.9c0.8-0.5 2-0.6 2.7-0.2l8.7 5.1c0.7 0.4 0.6 1.1-0.2 1.5l-8.6 5c-0.8 0.4-2 0.5-2.7 0.1z" />
				<path id="&lt;Path&gt;" class="s8" d="m257.2 317.1l-8.7-5c-0.7-0.4-0.6-1.1 0.2-1.6l8.6-5c0.8-0.4 2-0.5 2.7-0.1l8.7 5c0.7 0.4 0.6 1.1-0.2 1.6l-8.6 5c-0.8 0.4-2 0.5-2.7 0.1z" />
				<path id="&lt;Path&gt;" class="s8" d="m243.6 309.2l-8.7-5c-0.7-0.4-0.6-1.1 0.2-1.5l8.6-5c0.8-0.5 2-0.5 2.7-0.1l8.7 5c0.7 0.4 0.6 1.1-0.2 1.6l-8.6 4.9c-0.8 0.5-2 0.5-2.7 0.1z" />
				<path id="&lt;Path&gt;" class="s8" d="m230 301.4l-18.7-10.8c-0.7-0.4-0.6-1.1 0.2-1.6l8.6-4.9c0.8-0.5 2-0.6 2.7-0.2l18.7 10.8c0.7 0.4 0.6 1.1-0.2 1.6l-8.6 5c-0.8 0.4-2 0.5-2.7 0.1z" />
				<path id="&lt;Path&gt;" class="s8" d="m239.5 291.8l-15.1-8.7c-0.7-0.4-0.7-1.1 0.1-1.6l8.6-5c0.8-0.4 2.1-0.5 2.8-0.1l15.1 8.8c0.7 0.4 0.6 1.1-0.2 1.5l-8.6 5c-0.8 0.5-2 0.5-2.7 0.1z" />
				<path id="&lt;Path&gt;" class="s8" d="m270.6 324.8l-8.7-5c-0.7-0.4-0.6-1.1 0.2-1.6l8.6-4.9c0.8-0.5 2-0.5 2.7-0.1l8.7 5c0.7 0.4 0.6 1.1-0.2 1.5l-8.6 5c-0.8 0.4-2 0.5-2.7 0.1z" />
				<path id="&lt;Path&gt;" class="s8" d="m284 332.5l-8.7-5c-0.7-0.4-0.6-1.1 0.2-1.5l8.6-5c0.8-0.5 2-0.5 2.7-0.1l8.7 5c0.7 0.4 0.6 1.1-0.2 1.6l-8.6 4.9c-0.8 0.5-2 0.5-2.7 0.1z" />
				<path id="&lt;Path&gt;" class="s8" d="m297.4 340.3l-8.7-5c-0.7-0.5-0.6-1.2 0.2-1.6l8.6-5c0.8-0.4 2-0.5 2.7-0.1l8.7 5c0.7 0.4 0.6 1.1-0.2 1.6l-8.6 4.9c-0.8 0.5-2 0.6-2.7 0.2z" />
				<path id="&lt;Path&gt;" class="s8" d="m310.8 348l-8.7-5c-0.7-0.4-0.6-1.1 0.2-1.6l8.6-4.9c0.8-0.5 2-0.6 2.7-0.2l8.7 5c0.7 0.4 0.6 1.2-0.2 1.6l-8.6 5c-0.8 0.4-2 0.5-2.7 0.1z" />
				<path id="&lt;Path&gt;" class="s8" d="m324.2 355.7l-8.7-5c-0.7-0.4-0.6-1.1 0.2-1.6l8.6-4.9c0.8-0.5 2-0.5 2.7-0.1l8.7 5c0.7 0.4 0.6 1.1-0.2 1.5l-8.6 5c-0.8 0.5-2 0.5-2.7 0.1z" />
				<path id="&lt;Path&gt;" class="s8" d="m337.5 363.4l-8.6-5c-0.7-0.4-0.6-1.1 0.2-1.5l8.6-5c0.8-0.5 2-0.5 2.7-0.1l8.7 5c0.6 0.4 0.6 1.1-0.2 1.6l-8.6 4.9c-0.8 0.5-2.1 0.5-2.8 0.1z" />
				<path id="&lt;Path&gt;" class="s8" d="m350.9 371.2l-8.6-5c-0.7-0.4-0.6-1.1 0.2-1.6l8.6-5c0.8-0.4 2-0.5 2.7-0.1l8.6 5c0.7 0.4 0.7 1.1-0.2 1.6l-8.5 5c-0.8 0.4-2.1 0.5-2.8 0.1z" />
				<path id="&lt;Path&gt;" class="s8" d="m364.3 378.9l-8.6-5c-0.7-0.4-0.6-1.1 0.2-1.6l8.5-4.9c0.9-0.5 2.1-0.5 2.8-0.1l8.6 5c0.7 0.4 0.6 1.1-0.2 1.5l-8.6 5c-0.8 0.5-2 0.5-2.7 0.1z" />
				<path id="&lt;Path&gt;" class="s8" d="m377.7 386.6l-8.6-5c-0.7-0.4-0.7-1.1 0.1-1.5l8.6-5c0.8-0.5 2.1-0.5 2.8-0.1l8.6 5c0.7 0.4 0.6 1.1-0.2 1.6l-8.6 4.9c-0.8 0.5-2 0.5-2.7 0.1z" />
				<path id="&lt;Path&gt;" class="s8" d="m401.5 400.4l-18.9-10.9c-0.7-0.5-0.6-1.2 0.2-1.6l8.6-5c0.8-0.4 2-0.5 2.7-0.1l18.9 10.9c0.7 0.4 0.6 1.1-0.2 1.6l-8.6 5c-0.8 0.4-2 0.5-2.7 0.1z" />
				<path id="&lt;Path&gt;" class="s8" d="m427.6 385.3l-16-9.2c-0.7-0.4-0.6-1.1 0.2-1.6l8.6-4.9c0.8-0.5 2-0.5 2.7-0.1l16 9.2c0.7 0.4 0.6 1.1-0.2 1.6l-8.6 4.9c-0.8 0.5-2 0.5-2.7 0.1z" />
				<path id="&lt;Path&gt;" class="s8" d="m294 323.3l-8.6-5c-0.7-0.4-0.6-1.1 0.2-1.6l8.6-4.9c0.8-0.5 2-0.6 2.7-0.2l8.6 5c0.7 0.4 0.7 1.2-0.1 1.6l-8.6 5c-0.8 0.4-2.1 0.5-2.8 0.1z" />
				<path id="&lt;Path&gt;" class="s8" d="m280.3 315.4l-8.7-5c-0.6-0.4-0.6-1.1 0.2-1.6l8.6-5c0.8-0.4 2.1-0.5 2.7-0.1l8.7 5c0.7 0.4 0.6 1.1-0.2 1.6l-8.6 5c-0.8 0.4-2 0.5-2.7 0.1z" />
				<path id="&lt;Path&gt;" class="s8" d="m266.6 307.4l-8.7-5c-0.7-0.4-0.6-1.1 0.2-1.5l8.6-5c0.8-0.5 2-0.5 2.7-0.1l8.7 5c0.7 0.4 0.6 1.1-0.2 1.6l-8.6 4.9c-0.8 0.5-2 0.5-2.7 0.1z" />
				<path id="&lt;Path&gt;" class="s8" d="m252.9 299.5l-8.7-5c-0.7-0.4-0.6-1.1 0.2-1.6l8.6-4.9c0.8-0.5 2-0.5 2.7-0.1l8.7 5c0.7 0.4 0.6 1.1-0.2 1.6l-8.6 4.9c-0.8 0.5-2 0.5-2.7 0.1z" />
				<path id="&lt;Path&gt;" class="s8" d="m307.4 331l-8.6-5c-0.7-0.4-0.6-1.1 0.2-1.6l8.5-4.9c0.9-0.5 2.1-0.5 2.8-0.1l8.6 5c0.7 0.4 0.6 1.1-0.2 1.5l-8.6 5c-0.8 0.5-2 0.5-2.7 0.1z" />
				<path id="&lt;Path&gt;" class="s8" d="m320.8 338.7l-8.6-5c-0.7-0.4-0.7-1.1 0.1-1.5l8.6-5c0.8-0.5 2.1-0.5 2.8-0.1l8.6 5c0.7 0.4 0.6 1.1-0.2 1.6l-8.6 4.9c-0.8 0.5-2 0.5-2.7 0.1z" />
				<path id="&lt;Path&gt;" class="s8" d="m334.2 346.5l-8.7-5c-0.7-0.4-0.6-1.1 0.2-1.6l8.6-5c0.8-0.4 2.1-0.5 2.7-0.1l8.7 5c0.7 0.4 0.6 1.1-0.2 1.6l-8.6 5c-0.8 0.4-2 0.5-2.7 0.1z" />
				<path id="&lt;Path&gt;" class="s8" d="m347.6 354.2l-8.7-5c-0.7-0.4-0.6-1.1 0.2-1.6l8.6-4.9c0.8-0.5 2-0.5 2.7-0.1l8.7 5c0.7 0.4 0.6 1.1-0.2 1.5l-8.6 5c-0.8 0.5-2 0.5-2.7 0.1z" />
				<path id="&lt;Path&gt;" class="s8" d="m361 361.9l-8.7-5c-0.7-0.4-0.6-1.1 0.2-1.5l8.6-5c0.8-0.5 2-0.5 2.7-0.1l8.7 5c0.7 0.4 0.6 1.1-0.2 1.6l-8.6 4.9c-0.8 0.5-2 0.5-2.7 0.1z" />
				<path id="&lt;Path&gt;" class="s8" d="m374.4 369.7l-8.7-5c-0.7-0.4-0.6-1.1 0.2-1.6l8.6-5c0.8-0.4 2-0.5 2.7-0.1l8.7 5c0.7 0.4 0.6 1.1-0.2 1.6l-8.6 4.9c-0.8 0.5-2 0.6-2.7 0.2z" />
				<path id="&lt;Path&gt;" class="s8" d="m387.8 377.4l-8.7-5c-0.7-0.4-0.6-1.1 0.2-1.6l8.6-4.9c0.8-0.5 2-0.6 2.7-0.2l8.7 5.1c0.7 0.4 0.6 1.1-0.2 1.5l-8.6 5c-0.8 0.4-2 0.5-2.7 0.1z" />
				<path id="&lt;Path&gt;" class="s8" d="m401.2 385.1l-8.7-5c-0.7-0.4-0.6-1.1 0.2-1.6l8.6-4.9c0.8-0.5 2-0.5 2.7-0.1l8.7 5c0.7 0.4 0.6 1.1-0.2 1.5l-8.6 5c-0.8 0.5-2 0.5-2.7 0.1z" />
				<path id="&lt;Path&gt;" class="s8" d="m414.6 392.8l-8.7-5c-0.7-0.4-0.6-1.1 0.2-1.5l8.6-5c0.8-0.4 2-0.5 2.7-0.1l8.7 5c0.7 0.4 0.6 1.1-0.2 1.6l-8.6 4.9c-0.8 0.5-2 0.5-2.7 0.1z" />
				<path id="&lt;Path&gt;" class="s8" d="m287 304.2l-8.7-5c-0.7-0.4-0.6-1.1 0.2-1.6l8.6-5c0.8-0.4 2-0.5 2.7-0.1l8.7 5c0.7 0.4 0.6 1.1-0.2 1.6l-8.6 5c-0.8 0.4-2 0.5-2.7 0.1z" />
				<path id="&lt;Path&gt;" class="s8" d="m273.7 296.5l-8.7-5c-0.7-0.4-0.6-1.1 0.2-1.6l8.6-5c0.8-0.4 2-0.5 2.7-0.1l8.7 5c0.7 0.4 0.6 1.1-0.2 1.6l-8.6 5c-0.8 0.4-2 0.5-2.7 0.1z" />
				<path id="&lt;Path&gt;" class="s8" d="m260.3 288.8l-8.6-5c-0.7-0.4-0.6-1.1 0.2-1.6l8.6-4.9c0.8-0.5 2-0.6 2.7-0.2l8.6 5c0.7 0.5 0.7 1.2-0.2 1.6l-8.5 5c-0.8 0.4-2.1 0.5-2.8 0.1z" />
				<path id="&lt;Path&gt;" class="s8" d="m247 281.1l-8.7-5c-0.7-0.4-0.6-1.1 0.2-1.6l8.6-4.9c0.8-0.5 2.1-0.5 2.7-0.1l8.7 5c0.7 0.4 0.6 1.1-0.2 1.5l-8.6 5c-0.8 0.4-2 0.5-2.7 0.1z" />
				<path id="&lt;Path&gt;" class="s8" d="m260.7 273.2l-8.7-5c-0.6-0.4-0.6-1.1 0.2-1.6l2.9-1.6c0.8-0.5 2-0.5 2.7-0.1l8.7 5c0.7 0.4 0.6 1.1-0.2 1.5l-2.9 1.7c-0.8 0.4-2 0.5-2.7 0.1z" />
				<path id="&lt;Path&gt;" class="s8" d="m278.1 283.2l-8.7-5c-0.7-0.4-0.6-1.1 0.2-1.5l2.9-1.7c0.8-0.5 2-0.5 2.7-0.1l8.7 5c0.7 0.4 0.6 1.1-0.2 1.6l-2.9 1.6c-0.8 0.5-2 0.5-2.7 0.1z" />
				<path id="&lt;Path&gt;" class="s8" d="m291.4 290.9l-8.7-5c-0.7-0.4-0.6-1.1 0.2-1.6l2.8-1.6c0.8-0.5 2.1-0.5 2.8-0.1l8.6 5c0.7 0.4 0.6 1.1-0.2 1.5l-2.8 1.7c-0.8 0.4-2 0.5-2.7 0.1z" />
				<path id="&lt;Path&gt;" class="s8" d="m304.6 298.5l-8.6-5c-0.7-0.4-0.6-1.1 0.2-1.5l2.8-1.7c0.8-0.4 2-0.5 2.7-0.1l8.7 5c0.7 0.4 0.6 1.1-0.2 1.6l-2.8 1.6c-0.8 0.5-2.1 0.5-2.8 0.1z" />
				<path id="&lt;Path&gt;" class="s8" d="m317.9 306.2l-8.7-5c-0.7-0.4-0.6-1.1 0.2-1.6l2.9-1.6c0.8-0.5 2-0.5 2.7-0.1l8.7 5c0.7 0.4 0.6 1.1-0.2 1.5l-2.9 1.7c-0.8 0.5-2 0.5-2.7 0.1z" />
				<path id="&lt;Path&gt;" class="s8" d="m392 349l-8.7-5c-0.7-0.4-0.6-1.2 0.2-1.6l2.9-1.7c0.8-0.4 2-0.5 2.7-0.1l8.6 5c0.7 0.4 0.7 1.1-0.1 1.6l-2.9 1.6c-0.8 0.5-2 0.6-2.7 0.2z" />
				<path id="&lt;Path&gt;" class="s8" d="m405.3 356.6l-8.7-5c-0.7-0.4-0.6-1.1 0.2-1.6l2.8-1.6c0.8-0.5 2-0.5 2.7-0.1l8.7 5c0.7 0.4 0.6 1.1-0.2 1.6l-2.8 1.6c-0.8 0.5-2 0.5-2.7 0.1z" />
				<path id="&lt;Path&gt;" class="s8" d="m418.5 364.3l-8.6-5c-0.7-0.4-0.6-1.1 0.2-1.6l2.8-1.6c0.8-0.5 2-0.6 2.7-0.2l8.7 5.1c0.7 0.4 0.6 1.1-0.2 1.5l-2.9 1.7c-0.8 0.4-2 0.5-2.7 0.1z" />
				<path id="&lt;Path&gt;" class="s8" d="m431.8 371.9l-8.7-5c-0.7-0.4-0.6-1.1 0.2-1.5l2.9-1.7c0.8-0.4 2-0.5 2.7-0.1l8.7 5c0.7 0.4 0.6 1.1-0.2 1.6l-2.9 1.6c-0.8 0.5-2 0.5-2.7 0.1z" />
				<path id="&lt;Path&gt;" class="s8" d="m300.4 311.9l-8.7-5c-0.7-0.4-0.6-1.1 0.2-1.6l8.6-4.9c0.8-0.5 2-0.5 2.7-0.1l8.7 5c0.7 0.4 0.6 1.1-0.2 1.5l-8.6 5c-0.8 0.4-2 0.5-2.7 0.1z" />
				<path id="&lt;Path&gt;" class="s8" d="m313.8 319.6l-8.7-5c-0.7-0.4-0.6-1.1 0.2-1.5l8.6-5c0.8-0.5 2-0.5 2.7-0.1l8.7 5c0.7 0.4 0.6 1.1-0.2 1.6l-8.6 4.9c-0.8 0.5-2 0.5-2.7 0.1z" />
				<path id="&lt;Path&gt;" class="s8" d="m327.2 327.4l-8.7-5c-0.7-0.5-0.6-1.2 0.2-1.6l8.6-5c0.8-0.4 2-0.5 2.7-0.1l8.7 5c0.7 0.4 0.6 1.1-0.2 1.6l-8.6 4.9c-0.8 0.5-2 0.6-2.7 0.2z" />
				<path id="&lt;Path&gt;" class="s8" d="m340.6 335.1l-8.7-5c-0.7-0.4-0.6-1.1 0.2-1.6l8.6-4.9c0.8-0.5 2-0.6 2.7-0.2l8.7 5c0.7 0.4 0.6 1.1-0.2 1.6l-8.6 5c-0.8 0.4-2 0.5-2.7 0.1z" />
				<path id="&lt;Path&gt;" class="s8" d="m353.9 342.8l-8.6-5c-0.7-0.4-0.6-1.1 0.2-1.6l8.6-4.9c0.8-0.5 2-0.5 2.7-0.1l8.7 5c0.6 0.4 0.6 1.1-0.2 1.5l-8.6 5c-0.8 0.5-2.1 0.5-2.8 0.1z" />
				<path id="&lt;Path&gt;" class="s8" d="m367.3 350.5l-8.6-5c-0.7-0.4-0.6-1.1 0.2-1.5l8.6-5c0.8-0.5 2-0.5 2.7-0.1l8.6 5c0.7 0.4 0.7 1.1-0.2 1.6l-8.5 4.9c-0.8 0.5-2.1 0.5-2.8 0.1z" />
				<path id="&lt;Path&gt;" class="s8" d="m380.7 358.3l-8.6-5c-0.7-0.4-0.7-1.1 0.2-1.6l8.5-5c0.8-0.4 2.1-0.5 2.8-0.1l8.6 5c0.7 0.4 0.6 1.1-0.2 1.6l-8.6 5c-0.8 0.4-2 0.5-2.7 0.1z" />
				<path id="&lt;Path&gt;" class="s8" d="m394.1 366l-8.6-5c-0.7-0.4-0.7-1.1 0.1-1.6l8.6-4.9c0.8-0.5 2.1-0.5 2.8-0.1l8.6 5c0.7 0.4 0.6 1.1-0.2 1.5l-8.6 5c-0.8 0.5-2 0.5-2.7 0.1z" />
				<path id="&lt;Path&gt;" class="s8" d="m407.5 373.7l-8.7-5c-0.7-0.4-0.6-1.1 0.2-1.5l8.6-5c0.8-0.5 2-0.5 2.7-0.1l8.7 5c0.7 0.4 0.6 1.1-0.2 1.6l-8.6 4.9c-0.8 0.5-2 0.5-2.7 0.1z" />
				<path id="&lt;Path&gt;" class="s8" d="m223.8 312.9l-25.5-14.8c-0.7-0.4-0.6-1.1 0.2-1.6l8.6-4.9c0.8-0.5 2-0.5 2.7-0.1l25.5 14.7c0.7 0.4 0.6 1.1-0.2 1.6l-8.6 4.9c-0.8 0.5-2 0.6-2.7 0.2z" />
				<path id="&lt;Path&gt;" class="s8" d="m388.3 407.8l-25.5-14.7c-0.7-0.4-0.6-1.1 0.2-1.6l8.6-5c0.8-0.4 2-0.5 2.7-0.1l25.5 14.8c0.7 0.4 0.6 1.1-0.2 1.5l-8.5 5c-0.9 0.5-2.1 0.5-2.8 0.1z" />
				<path id="&lt;Path&gt;" class="s8" d="m334.8 394l-8.7-5c-0.7-0.4-0.6-1.1 0.2-1.6l10.2-5.9c0.8-0.5 2.1-0.5 2.8-0.1l8.6 5c0.7 0.4 0.6 1.1-0.2 1.5l-10.2 6c-0.8 0.4-2 0.5-2.7 0.1z" />
				<path id="&lt;Path&gt;" class="s8" d="m237.5 337.8l-13.8-8c-0.7-0.4-0.6-1.1 0.2-1.5l10.2-5.9c0.8-0.5 2-0.6 2.7-0.2l13.9 8.1c0.7 0.4 0.6 1.1-0.2 1.5l-10.2 5.9c-0.9 0.5-2.1 0.5-2.8 0.1z" />
				<path id="&lt;Path&gt;" class="s8" d="m321.9 386.5l-13.9-8c-0.7-0.4-0.6-1.1 0.2-1.6l10.2-5.9c0.8-0.4 2.1-0.5 2.8-0.1l13.8 8c0.7 0.4 0.6 1.1-0.2 1.6l-10.2 5.9c-0.8 0.5-2 0.5-2.7 0.1z" />
				<path id="&lt;Path&gt;" class="s8" d="m256.9 349l-13.9-8c-0.7-0.4-0.6-1.1 0.2-1.6l10.2-5.9c0.8-0.5 2-0.5 2.7-0.1l13.9 8c0.7 0.4 0.6 1.1-0.2 1.6l-10.2 5.9c-0.8 0.4-2 0.5-2.7 0.1z" />
				<path id="&lt;Path&gt;" class="s8" d="m256.2 333.5l60.3 34.8c0.8 0.4 0.8 1.1 0 1.5l-10.4 6c-0.8 0.5-2 0.5-2.7 0l-60.3-34.8z" />
				<path id="&lt;Path&gt;" class="s8" d="m372.2 408l9.7 5.6c0.5 0.3 0.5 0.9-0.2 1.2l-4.2 2.5c-0.6 0.3-1.6 0.4-2.2 0.1l-9.7-5.6c-0.5-0.4-0.5-0.9 0.2-1.3l4.2-2.4c0.6-0.4 1.6-0.4 2.2-0.1z" />
				<path id="&lt;Path&gt;" class="s8" d="m358.7 400.2l9.7 5.6c0.5 0.3 0.5 0.9-0.2 1.2l-4.2 2.5c-0.6 0.3-1.6 0.4-2.2 0.1l-9.7-5.6c-0.5-0.3-0.5-0.9 0.2-1.3l4.2-2.4c0.6-0.4 1.6-0.4 2.2-0.1z" />
				<path id="&lt;Path&gt;" class="s8" d="m345.3 392.5l9.7 5.5c0.5 0.4 0.5 0.9-0.2 1.3l-4.2 2.4c-0.6 0.4-1.6 0.5-2.2 0.1l-9.7-5.5c-0.5-0.4-0.5-1 0.2-1.3l4.2-2.4c0.6-0.4 1.6-0.5 2.2-0.1z" />
				<path id="&lt;Path&gt;" class="s8" d="m366.1 395.9l9.7 5.6c0.5 0.3 0.5 0.9-0.2 1.3l-4.2 2.4c-0.6 0.4-1.6 0.4-2.2 0.1l-9.7-5.6c-0.5-0.3-0.5-0.9 0.2-1.3l4.2-2.4c0.6-0.4 1.6-0.4 2.2-0.1z" />
			</g>
			<path id="&lt;Path&gt;" class="s9" d="m507.8 380.3l-255.8-147.7c-4-2.3-6.1-8-4.7-12.6l57.9-187.8c1.4-4.7 5.8-6.6 9.8-4.2l255.9 147.6c4 2.4 6.1 8 4.7 12.7l-57.9 187.8c-1.4 4.6-5.8 6.5-9.9 4.2z" />
			<path id="&lt;Path&gt;" class="s10" d="m505.4 373.7l-248.1-143.3c-3.9-2.3-5.9-7.7-4.5-12.1l55.3-179.5c1.4-4.5 5.6-6.3 9.4-4.1l248.2 143.3c3.8 2.3 5.9 7.7 4.5 12.1l-55.3 179.6c-1.4 4.4-5.6 6.2-9.5 4z" />
			<path id="&lt;Path&gt;" class="s11" d="m505.4 373.7l-248.1-143.3c-3.9-2.3-5.9-7.7-4.5-12.1l55.3-179.5c1.4-4.5 5.6-6.3 9.4-4.1l248.2 143.3c3.8 2.3 5.9 7.7 4.5 12.1l-55.3 179.6c-1.4 4.4-5.6 6.2-9.5 4z" />
			<path id="&lt;Path&gt;" class="s11" d="m505.4 373.7l-248.1-143.3c-3.9-2.3-5.9-7.7-4.5-12.1l55.3-179.5c1.4-4.5 5.6-6.3 9.4-4.1l248.2 143.3c3.8 2.3 5.9 7.7 4.5 12.1l-55.3 179.6c-1.4 4.4-5.6 6.2-9.5 4z" />
			<path id="&lt;Path&gt;" class="s12" d="m492.1 318.8l-168-96.9c-2.6-1.5-4-5.2-3.1-8.3l38-123.3c1-3.1 3.9-4.3 6.5-2.8l168 97c2.6 1.5 4 5.2 3.1 8.3l-38 123.3c-1 3-3.9 4.3-6.5 2.7z" />
			<g id="&lt;Group&gt;">
				<path id="&lt;Path&gt;" class="s13" d="m469.4 321.8l-168-96.9c-2.6-1.6-4-5.3-3.1-8.3l38-123.3c1-3.1 3.9-4.3 6.5-2.8l168 96.9c2.6 1.6 4 5.3 3.1 8.3l-38 123.3c-1 3.1-3.9 4.3-6.5 2.8z" />
			</g>
			<g id="&lt;Group&gt;" style="opacity: .5">
				<path id="&lt;Path&gt;" class="s8" d="m469.4 321.8l-168-96.9c-2.6-1.6-4-5.3-3.1-8.3l38-123.3c1-3.1 3.9-4.3 6.5-2.8l168 96.9c2.6 1.6 4 5.3 3.1 8.3l-38 123.3c-1 3.1-3.9 4.3-6.5 2.8z" />
			</g>
			<path id="&lt;Path&gt;" class="s7" d="m513.9 195.7l-38 123.3c-0.7 2.2-2.3 3.4-4.1 3.4c0.8-0.5 1.4-1.4 1.8-2.6l38-123.3c0.9-3-0.5-6.7-3.1-8.3l-168-96.9c-0.8-0.5-1.6-0.7-2.4-0.6c1.3-1 3-1.2 4.7-0.2l168 96.9c2.6 1.6 4 5.3 3.1 8.3z" />
			<path id="&lt;Compound Path&gt;" fill-rule="evenodd" class="s11" d="m257.5 422.5c-2.3 0-4.5-0.5-6.2-1.4l-67.3-38.9c-1.8-1-2.8-2.5-2.8-4.1c0-1.9 1.4-3.8 3.7-5.2l34.7-20c4.2-2.4 10.4-2.7 14.1-0.5l67.3 38.8c1.8 1.1 2.8 2.5 2.8 4.2c0 1.9-1.3 3.8-3.7 5.1l-34.7 20c-2.2 1.3-5.1 2-7.9 2zm-30-69.6c-2.4 0-5 0.6-6.9 1.7l-34.7 20c-1.7 1-2.7 2.3-2.7 3.5c0 1.1 1 2 1.8 2.4l67.3 38.9c3 1.7 8.6 1.5 12.2-0.6l34.6-20c1.8-1 2.8-2.2 2.8-3.4c0-1.2-1-2-1.8-2.5l-67.3-38.8c-1.4-0.8-3.3-1.2-5.3-1.2z" />
		</g>
		<g id="&lt;Group&gt;">
			<g id="&lt;Group&gt;">
				<path id="&lt;Path&gt;" class="s7" d="m383.7 155.2l-10.4-6c-0.9-0.6-1.4-1.9-1.1-3c0.3-1.1 1.3-1.5 2.3-1l10.4 6c1 0.6 1.5 1.9 1.2 3c-0.4 1.1-1.4 1.5-2.4 1z" />
				<path id="&lt;Path&gt;" class="s7" d="m408.5 169.5l-15.4-8.9c-0.9-0.5-1.4-1.9-1.1-3c0.3-1.1 1.4-1.5 2.3-0.9l15.3 8.8c1 0.6 1.5 1.9 1.2 3c-0.3 1.1-1.4 1.5-2.3 1z" />
				<path id="&lt;Path&gt;" class="s7" d="m362.8 201.4l-10.4-6c-1-0.5-1.5-1.9-1.2-3c0.4-1.1 1.4-1.5 2.4-0.9l10.4 5.9c0.9 0.6 1.4 1.9 1.1 3c-0.3 1.1-1.4 1.6-2.3 1z" />
				<path id="&lt;Path&gt;" class="s7" d="m384.8 214.1l-15.3-8.8c-1-0.6-1.5-1.9-1.1-3c0.3-1.1 1.3-1.5 2.3-1l15.3 8.9c1 0.5 1.5 1.9 1.2 3c-0.4 1.1-1.4 1.5-2.4 0.9z" />
				<path id="&lt;Path&gt;" class="s7" d="m352.6 146.9l-6.5-3.7c-0.9-0.6-1.5-1.9-1.1-3c0.3-1.1 1.3-1.5 2.3-1l6.5 3.8c1 0.5 1.5 1.9 1.1 3c-0.3 1.1-1.3 1.5-2.3 0.9z" />
				<path id="&lt;Path&gt;" class="s7" d="m372.1 167.9l-19.8-11.4c-1-0.6-1.5-1.9-1.1-3c0.3-1.1 1.3-1.5 2.3-1l19.8 11.5c1 0.5 1.5 1.9 1.2 3c-0.4 1.1-1.4 1.5-2.4 0.9z" />
				<path id="&lt;Path&gt;" class="s7" d="m353.8 176.8l-6.4-3.7c-1-0.6-1.5-1.9-1.2-3c0.3-1.1 1.4-1.5 2.3-1l6.5 3.8c1 0.5 1.5 1.9 1.2 2.9c-0.3 1.1-1.4 1.6-2.4 1z" />
				<path id="&lt;Path&gt;" class="s7" d="m387.2 234.9l-17.3-10c-1-0.5-1.5-1.8-1.2-2.9c0.4-1.1 1.4-1.6 2.4-1l17.3 10c1 0.5 1.5 1.9 1.2 3c-0.4 1.1-1.4 1.5-2.4 0.9z" />
				<path id="&lt;Path&gt;" class="s7" d="m346.6 192.1l-4.2-2.4c-1-0.6-1.5-1.9-1.1-3c0.3-1.1 1.3-1.6 2.3-1l4.2 2.4c0.9 0.6 1.4 1.9 1.1 3c-0.3 1.1-1.4 1.5-2.3 1z" />
				<path id="&lt;Path&gt;" class="s7" d="m342.6 209.2l-5.1-3c-1-0.5-1.5-1.9-1.2-3c0.3-1 1.4-1.5 2.3-0.9l5.2 3c1 0.5 1.5 1.9 1.2 2.9c-0.4 1.1-1.4 1.6-2.4 1z" />
				<path id="&lt;Path&gt;" class="s7" d="m362.8 220.8l-13.7-7.8c-0.9-0.6-1.5-1.9-1.1-3c0.3-1.1 1.3-1.6 2.3-1l13.6 7.9c1 0.5 1.5 1.9 1.2 3c-0.3 1-1.4 1.5-2.3 0.9z" />
				<path id="&lt;Path&gt;" class="s7" d="m344.8 220.2l-9.8-5.7c-1-0.5-1.5-1.9-1.2-3c0.4-1.1 1.4-1.5 2.4-0.9l9.8 5.6c0.9 0.6 1.5 1.9 1.1 3c-0.3 1.1-1.3 1.5-2.3 1z" />
				<path id="&lt;Path&gt;" class="s7" d="m402.1 243.6l-6.3-3.7c-1-0.5-1.5-1.9-1.2-2.9c0.4-1.1 1.4-1.6 2.4-1l6.3 3.6c0.9 0.6 1.4 1.9 1.1 3c-0.3 1.1-1.4 1.5-2.3 1z" />
				<path id="&lt;Path&gt;" class="s7" d="m378 190.7l-17.3-10c-1-0.5-1.5-1.9-1.2-2.9c0.3-1.1 1.4-1.6 2.3-1l17.4 10c0.9 0.5 1.4 1.9 1.1 3c-0.3 1.1-1.4 1.5-2.3 0.9z" />
			</g>
			<path id="&lt;Path&gt;" class="s14" d="m380 182.2l-30.2-17.4c-0.9-0.6-1.4-1.9-1.1-3c0.3-1.1 1.4-1.5 2.3-1l30.2 17.5c1 0.5 1.5 1.8 1.2 2.9c-0.4 1.1-1.4 1.6-2.4 1z" />
			<path id="&lt;Path&gt;" class="s14" d="m362.2 191.4l-17.3-10c-1-0.6-1.5-1.9-1.2-3c0.4-1.1 1.4-1.6 2.4-1l17.3 10c1 0.6 1.5 1.9 1.1 3c-0.3 1.1-1.3 1.5-2.3 1z" />
			<path id="&lt;Path&gt;" class="s14" d="m391.1 198.3l-6.3-3.6c-0.9-0.6-1.5-1.9-1.1-3c0.3-1.1 1.3-1.5 2.3-1l6.3 3.7c1 0.5 1.5 1.9 1.2 3c-0.4 1-1.4 1.5-2.4 0.9z" />
			<path id="&lt;Path&gt;" class="s14" d="m455.2 196.4l-37.3-21.5c-1-0.6-1.5-1.9-1.2-3c0.4-1.1 1.4-1.5 2.4-1l37.2 21.6c1 0.5 1.5 1.9 1.2 2.9c-0.3 1.1-1.4 1.6-2.3 1z" />
			<path id="&lt;Path&gt;" class="s15" d="m360.8 210l-20.9-12.1c-0.9-0.5-1.4-1.9-1.1-2.9c0.3-1.1 1.4-1.6 2.3-1l20.8 12c1 0.6 1.5 1.9 1.2 3c-0.3 1.1-1.4 1.5-2.3 1z" />
			<path id="&lt;Path&gt;" class="s15" d="m363.9 143.7l-15.3-8.8c-1-0.5-1.5-1.9-1.2-3c0.4-1.1 1.4-1.5 2.4-0.9l15.3 8.8c1 0.5 1.5 1.9 1.1 3c-0.3 1.1-1.3 1.5-2.3 0.9z" />
			<path id="&lt;Path&gt;" class="s14" d="m341.6 228l-17.7-10.2c-1-0.5-1.5-1.9-1.2-3c0.3-1.1 1.4-1.5 2.3-0.9l17.8 10.2c0.9 0.5 1.5 1.9 1.1 3c-0.3 1.1-1.3 1.5-2.3 0.9z" />
		</g>
		<g id="&lt;Group&gt;">
			<path id="&lt;Path&gt;" class="s7" d="m455.3 173.9l-7.6-4.4c-0.7-0.4-1.1-1.4-0.8-2.2c0.2-0.8 1-1.1 1.7-0.7l7.6 4.4c0.7 0.4 1.1 1.3 0.8 2.1c-0.2 0.8-1 1.2-1.7 0.8z" />
			<path id="&lt;Path&gt;" class="s7" d="m469.8 182.2l-7.6-4.4c-0.7-0.4-1.1-1.4-0.8-2.2c0.2-0.8 1-1.1 1.7-0.7l7.6 4.4c0.7 0.4 1 1.4 0.8 2.2c-0.2 0.8-1 1.1-1.7 0.7z" />
			<path id="&lt;Path&gt;" class="s7" d="m484.3 190.6l-7.6-4.4c-0.7-0.4-1.1-1.4-0.9-2.2c0.3-0.8 1-1.1 1.7-0.7l7.6 4.4c0.7 0.4 1.1 1.4 0.9 2.2c-0.3 0.8-1 1.1-1.7 0.7z" />
			<path id="&lt;Path&gt;" class="s15" d="m491.4 194.7l-0.2-0.2c-0.7-0.4-1.1-1.3-0.9-2.1c0.3-0.8 1-1.2 1.7-0.7l0.3 0.1c0.7 0.4 1 1.4 0.8 2.2c-0.2 0.8-1 1.1-1.7 0.7z" />
		</g>
	</g>
</svg>